<?xml version="1.0" encoding="UTF-8" standalone="no"?><svg xmlns="http://www.w3.org/2000/svg" xmlns:xlink="http://www.w3.org/1999/xlink" clip-rule="evenodd" stroke-miterlimit="4.00" viewBox="0 0 499 87"><desc>SVG generated by Keynote</desc><defs></defs><g transform="matrix(1.00, 0.00, -0.00, -1.00, 0.0, 87.0)"><text xml:space="preserve" font-family="Helvetica-Light" font-size="26.7" fill="#FEFFFF" transform="matrix(1.00, 0.00, -0.00, -1.00, 0.4, 62.1)">•</text><text xml:space="preserve" font-family="Helvetica-Light" font-size="35.6" fill="#FEFFFF" transform="matrix(1.00, 0.00, -0.00, -1.00, 34.0, 59.0)">A</text><text xml:space="preserve" font-family="Helvetica-Light" font-size="35.6" fill="#FEFFFF" transform="matrix(1.00, 0.00, -0.00, -1.00, 57.8, 59.0)">l</text><text xml:space="preserve" font-family="Helvetica-Light" font-size="35.6" fill="#FEFFFF" transform="matrix(1.00, 0.00, -0.00, -1.00, 65.7, 59.0)">l</text><text xml:space="preserve" font-family="Helvetica-Light" font-size="35.6" fill="#FEFFFF" transform="matrix(1.00, 0.00, -0.00, -1.00, 73.6, 59.0)">o</text><text xml:space="preserve" font-family="Helvetica-Light" font-size="35.6" fill="#FEFFFF" transform="matrix(1.00, 0.00, -0.00, -1.00, 93.4, 59.0)">w</text><text xml:space="preserve" font-family="Helvetica-Light" font-size="35.6" fill="#FEFFFF" transform="matrix(1.00, 0.00, -0.00, -1.00, 119.1, 59.0)">e</text><text xml:space="preserve" font-family="Helvetica-Light" font-size="35.6" fill="#FEFFFF" transform="matrix(1.00, 0.00, -0.00, -1.00, 139.0, 59.0)">d</text><text xml:space="preserve" font-family="Helvetica-Light" font-size="35.6" fill="#FEFFFF" transform="matrix(1.00, 0.00, -0.00, -1.00, 160.7, 59.0)"> </text><text xml:space="preserve" font-family="Helvetica-Light" font-size="35.6" fill="#FEFFFF" transform="matrix(1.00, 0.00, -0.00, -1.00, 170.6, 59.0)">b</text><text xml:space="preserve" font-family="Helvetica-Light" font-size="35.6" fill="#FEFFFF" transform="matrix(1.00, 0.00, -0.00, -1.00, 192.4, 59.0)">y</text><text xml:space="preserve" font-family="Helvetica-Light" font-size="35.6" fill="#FEFFFF" transform="matrix(1.00, 0.00, -0.00, -1.00, 210.2, 59.0)"> </text><text xml:space="preserve" font-family="Helvetica-Light" font-size="35.6" fill="#FEFFFF" transform="matrix(1.00, 0.00, -0.00, -1.00, 220.1, 59.0)">A</text><text xml:space="preserve" font-family="Helvetica-Light" font-size="35.6" fill="#FEFFFF" transform="matrix(1.00, 0.00, -0.00, -1.00, 243.9, 59.0)">p</text><text xml:space="preserve" font-family="Helvetica-Light" font-size="35.6" fill="#FEFFFF" transform="matrix(1.00, 0.00, -0.00, -1.00, 265.7, 59.0)">p</text><text xml:space="preserve" font-family="Helvetica-Light" font-size="35.6" fill="#FEFFFF" transform="matrix(1.00, 0.00, -0.00, -1.00, 287.5, 59.0)">l</text><text xml:space="preserve" font-family="Helvetica-Light" font-size="35.6" fill="#FEFFFF" transform="matrix(1.00, 0.00, -0.00, -1.00, 295.4, 59.0)">e</text><text xml:space="preserve" font-family="Helvetica-Light" font-size="35.6" fill="#FEFFFF" transform="matrix(1.00, 0.00, -0.00, -1.00, 315.2, 59.0)"> </text><text xml:space="preserve" font-family="Helvetica-Light" font-size="35.6" fill="#FEFFFF" transform="matrix(1.00, 0.00, -0.00, -1.00, 325.1, 59.0)">(</text><text xml:space="preserve" font-family="Helvetica-Light" font-size="35.6" fill="#FEFFFF" transform="matrix(1.00, 0.00, -0.00, -1.00, 337.0, 59.0)">A</text><text xml:space="preserve" font-family="Helvetica-Light" font-size="35.6" fill="#FEFFFF" transform="matrix(1.00, 0.00, -0.00, -1.00, 360.7, 59.0)">p</text><text xml:space="preserve" font-family="Helvetica-Light" font-size="35.6" fill="#FEFFFF" transform="matrix(1.00, 0.00, -0.00, -1.00, 382.5, 59.0)">p</text><text xml:space="preserve" font-family="Helvetica-Light" font-size="35.6" fill="#FEFFFF" transform="matrix(1.00, 0.00, -0.00, -1.00, 404.3, 59.0)"> </text><text xml:space="preserve" font-family="Helvetica-Light" font-size="35.6" fill="#FEFFFF" transform="matrix(1.00, 0.00, -0.00, -1.00, 414.2, 59.0)">S</text><text xml:space="preserve" font-family="Helvetica-Light" font-size="35.6" fill="#FEFFFF" transform="matrix(1.00, 0.00, -0.00, -1.00, 436.0, 59.0)">t</text><text xml:space="preserve" font-family="Helvetica-Light" font-size="35.6" fill="#FEFFFF" transform="matrix(1.00, 0.00, -0.00, -1.00, 445.9, 59.0)">o</text><text xml:space="preserve" font-family="Helvetica-Light" font-size="35.6" fill="#FEFFFF" transform="matrix(1.00, 0.00, -0.00, -1.00, 465.7, 59.0)">r</text><text xml:space="preserve" font-family="Helvetica-Light" font-size="35.6" fill="#FEFFFF" transform="matrix(1.00, 0.00, -0.00, -1.00, 476.9, 59.0)">e</text><text xml:space="preserve" font-family="Helvetica-Light" font-size="35.6" fill="#FEFFFF" transform="matrix(1.00, 0.00, -0.00, -1.00, 496.7, 59.0)"> </text><text xml:space="preserve" font-family="Helvetica-Light" font-size="35.6" fill="#FEFFFF" transform="matrix(1.00, 0.00, -0.00, -1.00, 34.0, 9.0)">R</text><text xml:space="preserve" font-family="Helvetica-Light" font-size="35.6" fill="#FEFFFF" transform="matrix(1.00, 0.00, -0.00, -1.00, 57.8, 9.0)">e</text><text xml:space="preserve" font-family="Helvetica-Light" font-size="35.6" fill="#FEFFFF" transform="matrix(1.00, 0.00, -0.00, -1.00, 77.6, 9.0)">v</text><text xml:space="preserve" font-family="Helvetica-Light" font-size="35.6" fill="#FEFFFF" transform="matrix(1.00, 0.00, -0.00, -1.00, 95.4, 9.0)">i</text><text xml:space="preserve" font-family="Helvetica-Light" font-size="35.6" fill="#FEFFFF" transform="matrix(1.00, 0.00, -0.00, -1.00, 103.3, 9.0)">e</text><text xml:space="preserve" font-family="Helvetica-Light" font-size="35.6" fill="#FEFFFF" transform="matrix(1.00, 0.00, -0.00, -1.00, 123.1, 9.0)">w</text><text xml:space="preserve" font-family="Helvetica-Light" font-size="35.6" fill="#FEFFFF" transform="matrix(1.00, 0.00, -0.00, -1.00, 148.9, 9.0)"> </text><text xml:space="preserve" font-family="Helvetica-Light" font-size="35.6" fill="#FEFFFF" transform="matrix(1.00, 0.00, -0.00, -1.00, 158.8, 9.0)">G</text><text xml:space="preserve" font-family="Helvetica-Light" font-size="35.6" fill="#FEFFFF" transform="matrix(1.00, 0.00, -0.00, -1.00, 186.5, 9.0)">u</text><text xml:space="preserve" font-family="Helvetica-Light" font-size="35.6" fill="#FEFFFF" transform="matrix(1.00, 0.00, -0.00, -1.00, 206.3, 9.0)">i</text><text xml:space="preserve" font-family="Helvetica-Light" font-size="35.6" fill="#FEFFFF" transform="matrix(1.00, 0.00, -0.00, -1.00, 214.2, 9.0)">d</text><text xml:space="preserve" font-family="Helvetica-Light" font-size="35.6" fill="#FEFFFF" transform="matrix(1.00, 0.00, -0.00, -1.00, 236.0, 9.0)">e</text><text xml:space="preserve" font-family="Helvetica-Light" font-size="35.6" fill="#FEFFFF" transform="matrix(1.00, 0.00, -0.00, -1.00, 255.8, 9.0)">l</text><text xml:space="preserve" font-family="Helvetica-Light" font-size="35.6" fill="#FEFFFF" transform="matrix(1.00, 0.00, -0.00, -1.00, 263.7, 9.0)">i</text><text xml:space="preserve" font-family="Helvetica-Light" font-size="35.6" fill="#FEFFFF" transform="matrix(1.00, 0.00, -0.00, -1.00, 271.6, 9.0)">n</text><text xml:space="preserve" font-family="Helvetica-Light" font-size="35.6" fill="#FEFFFF" transform="matrix(1.00, 0.00, -0.00, -1.00, 291.5, 9.0)">e</text><text xml:space="preserve" font-family="Helvetica-Light" font-size="35.6" fill="#FEFFFF" transform="matrix(1.00, 0.00, -0.00, -1.00, 311.3, 9.0)">s</text><text xml:space="preserve" font-family="Helvetica-Light" font-size="35.6" fill="#FEFFFF" transform="matrix(1.00, 0.00, -0.00, -1.00, 329.1, 9.0)">)</text></g></svg>