<?xml version="1.0" encoding="UTF-8" standalone="no"?><svg xmlns="http://www.w3.org/2000/svg" xmlns:xlink="http://www.w3.org/1999/xlink" clip-rule="evenodd" stroke-miterlimit="4.00" viewBox="0 0 161 30"><desc>SVG generated by Keynote</desc><defs></defs><g transform="matrix(1.00, 0.00, -0.00, -1.00, 0.0, 30.0)"><text xml:space="preserve" font-family="Helvetica-Bold" font-weight="bold" font-size="35.6" fill="#FEFFFF" transform="matrix(1.00, 0.00, -0.00, -1.00, -1.0, 3.0)">U</text><text xml:space="preserve" font-family="Helvetica-Bold" font-weight="bold" font-size="35.6" fill="#FEFFFF" transform="matrix(1.00, 0.00, -0.00, -1.00, 24.7, 3.0)">n</text><text xml:space="preserve" font-family="Helvetica-Bold" font-weight="bold" font-size="35.6" fill="#FEFFFF" transform="matrix(1.00, 0.00, -0.00, -1.00, 46.5, 3.0)">t</text><text xml:space="preserve" font-family="Helvetica-Bold" font-weight="bold" font-size="35.6" fill="#FEFFFF" transform="matrix(1.00, 0.00, -0.00, -1.00, 58.4, 3.0)">i</text><text xml:space="preserve" font-family="Helvetica-Bold" font-weight="bold" font-size="35.6" fill="#FEFFFF" transform="matrix(1.00, 0.00, -0.00, -1.00, 68.3, 3.0)">l</text><text xml:space="preserve" font-family="Helvetica-Bold" font-weight="bold" font-size="35.6" fill="#FEFFFF" transform="matrix(1.00, 0.00, -0.00, -1.00, 78.2, 3.0)"> </text><text xml:space="preserve" font-family="Helvetica-Bold" font-weight="bold" font-size="35.6" fill="#FEFFFF" transform="matrix(1.00, 0.00, -0.00, -1.00, 88.1, 3.0)">n</text><text xml:space="preserve" font-family="Helvetica-Bold" font-weight="bold" font-size="35.6" fill="#FEFFFF" transform="matrix(1.00, 0.00, -0.00, -1.00, 109.8, 3.0)">o</text><text xml:space="preserve" font-family="Helvetica-Bold" font-weight="bold" font-size="35.6" fill="#FEFFFF" transform="matrix(1.00, 0.00, -0.00, -1.00, 131.6, 3.0)">w</text></g></svg>