<?xml version="1.0" encoding="UTF-8" standalone="no"?><svg xmlns="http://www.w3.org/2000/svg" xmlns:xlink="http://www.w3.org/1999/xlink" clip-rule="evenodd" stroke-miterlimit="4.00" viewBox="0 0 564 81"><desc>SVG generated by Keynote</desc><defs></defs><g transform="matrix(1.00, 0.00, -0.00, -1.00, 0.0, 81.0)"><text xml:space="preserve" font-family="Helvetica-Light" font-size="26.7" fill="#FEFFFF" transform="matrix(1.00, 0.00, -0.00, -1.00, 0.4, 56.3)">•</text><text xml:space="preserve" font-family="Helvetica-Light" font-size="35.6" fill="#FEFFFF" transform="matrix(1.00, 0.00, -0.00, -1.00, 34.0, 53.0)">O</text><text xml:space="preserve" font-family="Helvetica-Light" font-size="35.6" fill="#FEFFFF" transform="matrix(1.00, 0.00, -0.00, -1.00, 61.7, 53.0)">n</text><text xml:space="preserve" font-family="Helvetica-Light" font-size="35.6" fill="#FEFFFF" transform="matrix(1.00, 0.00, -0.00, -1.00, 81.5, 53.0)">l</text><text xml:space="preserve" font-family="Helvetica-Light" font-size="35.6" fill="#FEFFFF" transform="matrix(1.00, 0.00, -0.00, -1.00, 89.5, 53.0)">y</text><text xml:space="preserve" font-family="Helvetica-Light" font-size="35.6" fill="#FEFFFF" transform="matrix(1.00, 0.00, -0.00, -1.00, 107.3, 53.0)"> </text><text xml:space="preserve" font-family="Helvetica-Light" font-size="35.6" fill="#FEFFFF" transform="matrix(1.00, 0.00, -0.00, -1.00, 117.2, 53.0)">i</text><text xml:space="preserve" font-family="Helvetica-Light" font-size="35.6" fill="#FEFFFF" transform="matrix(1.00, 0.00, -0.00, -1.00, 125.1, 53.0)">t</text><text xml:space="preserve" font-family="Helvetica-Light" font-size="35.6" fill="#FEFFFF" transform="matrix(1.00, 0.00, -0.00, -1.00, 135.0, 53.0)">e</text><text xml:space="preserve" font-family="Helvetica-Light" font-size="35.6" fill="#FEFFFF" transform="matrix(1.00, 0.00, -0.00, -1.00, 154.8, 53.0)">m</text><text xml:space="preserve" font-family="Helvetica-Light" font-size="35.6" fill="#FEFFFF" transform="matrix(1.00, 0.00, -0.00, -1.00, 184.5, 53.0)">s</text><text xml:space="preserve" font-family="Helvetica-Light" font-size="35.6" fill="#FEFFFF" transform="matrix(1.00, 0.00, -0.00, -1.00, 202.3, 53.0)"> </text><text xml:space="preserve" font-family="Helvetica-Light" font-size="35.6" fill="#FEFFFF" transform="matrix(1.00, 0.00, -0.00, -1.00, 212.2, 53.0)">t</text><text xml:space="preserve" font-family="Helvetica-Light" font-size="35.6" fill="#FEFFFF" transform="matrix(1.00, 0.00, -0.00, -1.00, 222.1, 53.0)">h</text><text xml:space="preserve" font-family="Helvetica-Light" font-size="35.6" fill="#FEFFFF" transform="matrix(1.00, 0.00, -0.00, -1.00, 242.0, 53.0)">a</text><text xml:space="preserve" font-family="Helvetica-Light" font-size="35.6" fill="#FEFFFF" transform="matrix(1.00, 0.00, -0.00, -1.00, 261.8, 53.0)">t</text><text xml:space="preserve" font-family="Helvetica-Light" font-size="35.6" fill="#FEFFFF" transform="matrix(1.00, 0.00, -0.00, -1.00, 271.7, 53.0)"> </text><text xml:space="preserve" font-family="Helvetica-Light" font-size="35.6" fill="#FEFFFF" transform="matrix(1.00, 0.00, -0.00, -1.00, 281.6, 53.0)">a</text><text xml:space="preserve" font-family="Helvetica-Light" font-size="35.6" fill="#FEFFFF" transform="matrix(1.00, 0.00, -0.00, -1.00, 301.4, 53.0)">r</text><text xml:space="preserve" font-family="Helvetica-Light" font-size="35.6" fill="#FEFFFF" transform="matrix(1.00, 0.00, -0.00, -1.00, 312.6, 53.0)">e</text><text xml:space="preserve" font-family="Helvetica-Light" font-size="35.6" fill="#FEFFFF" transform="matrix(1.00, 0.00, -0.00, -1.00, 332.4, 53.0)"> </text><text xml:space="preserve" font-family="Helvetica-Light" font-size="35.6" fill="#FEFFFF" transform="matrix(1.00, 0.00, -0.00, -1.00, 342.4, 53.0)">p</text><text xml:space="preserve" font-family="Helvetica-Light" font-size="35.6" fill="#FEFFFF" transform="matrix(1.00, 0.00, -0.00, -1.00, 364.1, 53.0)">r</text><text xml:space="preserve" font-family="Helvetica-Light" font-size="35.6" fill="#FEFFFF" transform="matrix(1.00, 0.00, -0.00, -1.00, 375.4, 53.0)">o</text><text xml:space="preserve" font-family="Helvetica-Light" font-size="35.6" fill="#FEFFFF" transform="matrix(1.00, 0.00, -0.00, -1.00, 395.2, 53.0)">c</text><text xml:space="preserve" font-family="Helvetica-Light" font-size="35.6" fill="#FEFFFF" transform="matrix(1.00, 0.00, -0.00, -1.00, 415.0, 53.0)">e</text><text xml:space="preserve" font-family="Helvetica-Light" font-size="35.6" fill="#FEFFFF" transform="matrix(1.00, 0.00, -0.00, -1.00, 434.8, 53.0)">s</text><text xml:space="preserve" font-family="Helvetica-Light" font-size="35.6" fill="#FEFFFF" transform="matrix(1.00, 0.00, -0.00, -1.00, 452.6, 53.0)">s</text><text xml:space="preserve" font-family="Helvetica-Light" font-size="35.6" fill="#FEFFFF" transform="matrix(1.00, 0.00, -0.00, -1.00, 470.4, 53.0)">e</text><text xml:space="preserve" font-family="Helvetica-Light" font-size="35.6" fill="#FEFFFF" transform="matrix(1.00, 0.00, -0.00, -1.00, 490.3, 53.0)">d</text><text xml:space="preserve" font-family="Helvetica-Light" font-size="35.6" fill="#FEFFFF" transform="matrix(1.00, 0.00, -0.00, -1.00, 512.0, 53.0)"> </text><text xml:space="preserve" font-family="Helvetica-Light" font-size="35.6" fill="#FEFFFF" transform="matrix(1.00, 0.00, -0.00, -1.00, 521.9, 53.0)">b</text><text xml:space="preserve" font-family="Helvetica-Light" font-size="35.6" fill="#FEFFFF" transform="matrix(1.00, 0.00, -0.00, -1.00, 543.7, 53.0)">y</text><text xml:space="preserve" font-family="Helvetica-Light" font-size="35.6" fill="#FEFFFF" transform="matrix(1.00, 0.00, -0.00, -1.00, 561.5, 53.0)"> </text><text xml:space="preserve" font-family="Helvetica-Light" font-size="35.6" fill="#FEFFFF" transform="matrix(1.00, 0.00, -0.00, -1.00, 34.0, 3.0)">W</text><text xml:space="preserve" font-family="Helvetica-Light" font-size="35.6" fill="#FEFFFF" transform="matrix(1.00, 0.00, -0.00, -1.00, 65.0, 3.0)">e</text><text xml:space="preserve" font-family="Helvetica-Light" font-size="35.6" fill="#FEFFFF" transform="matrix(1.00, 0.00, -0.00, -1.00, 84.9, 3.0)">b</text><text xml:space="preserve" font-family="Helvetica-Light" font-size="35.6" fill="#FEFFFF" transform="matrix(1.00, 0.00, -0.00, -1.00, 106.6, 3.0)">K</text><text xml:space="preserve" font-family="Helvetica-Light" font-size="35.6" fill="#FEFFFF" transform="matrix(1.00, 0.00, -0.00, -1.00, 130.4, 3.0)">i</text><text xml:space="preserve" font-family="Helvetica-Light" font-size="35.6" fill="#FEFFFF" transform="matrix(1.00, 0.00, -0.00, -1.00, 138.3, 3.0)">t</text></g></svg>