<?xml version="1.0" encoding="UTF-8" standalone="no"?><svg xmlns="http://www.w3.org/2000/svg" xmlns:xlink="http://www.w3.org/1999/xlink" clip-rule="evenodd" stroke-miterlimit="4.00" viewBox="0 0 568 87"><desc>SVG generated by Keynote</desc><defs></defs><g transform="matrix(1.00, 0.00, -0.00, -1.00, 0.0, 87.0)"><text xml:space="preserve" font-family="Helvetica-Light" font-size="26.7" fill="#FEFFFF" transform="matrix(1.00, 0.00, -0.00, -1.00, 0.4, 62.9)">•</text><text xml:space="preserve" font-family="Helvetica-Light" font-size="35.6" fill="#FEFFFF" transform="matrix(1.00, 0.00, -0.00, -1.00, 34.0, 60.0)">D</text><text xml:space="preserve" font-family="Helvetica-Light" font-size="35.6" fill="#FEFFFF" transform="matrix(1.00, 0.00, -0.00, -1.00, 59.7, 60.0)">o</text><text xml:space="preserve" font-family="Helvetica-Light" font-size="35.6" fill="#FEFFFF" transform="matrix(1.00, 0.00, -0.00, -1.00, 79.5, 60.0)">w</text><text xml:space="preserve" font-family="Helvetica-Light" font-size="35.6" fill="#FEFFFF" transform="matrix(1.00, 0.00, -0.00, -1.00, 105.3, 60.0)">n</text><text xml:space="preserve" font-family="Helvetica-Light" font-size="35.6" fill="#FEFFFF" transform="matrix(1.00, 0.00, -0.00, -1.00, 125.1, 60.0)">l</text><text xml:space="preserve" font-family="Helvetica-Light" font-size="35.6" fill="#FEFFFF" transform="matrix(1.00, 0.00, -0.00, -1.00, 133.0, 60.0)">o</text><text xml:space="preserve" font-family="Helvetica-Light" font-size="35.6" fill="#FEFFFF" transform="matrix(1.00, 0.00, -0.00, -1.00, 152.8, 60.0)">a</text><text xml:space="preserve" font-family="Helvetica-Light" font-size="35.6" fill="#FEFFFF" transform="matrix(1.00, 0.00, -0.00, -1.00, 172.6, 60.0)">d</text><text xml:space="preserve" font-family="Helvetica-Light" font-size="35.6" fill="#FEFFFF" transform="matrix(1.00, 0.00, -0.00, -1.00, 194.4, 60.0)">,</text><text xml:space="preserve" font-family="Helvetica-Light" font-size="35.6" fill="#FEFFFF" transform="matrix(1.00, 0.00, -0.00, -1.00, 204.3, 60.0)"> </text><text xml:space="preserve" font-family="Helvetica-Light" font-size="35.6" fill="#FEFFFF" transform="matrix(1.00, 0.00, -0.00, -1.00, 214.2, 60.0)">c</text><text xml:space="preserve" font-family="Helvetica-Light" font-size="35.6" fill="#FEFFFF" transform="matrix(1.00, 0.00, -0.00, -1.00, 234.0, 60.0)">a</text><text xml:space="preserve" font-family="Helvetica-Light" font-size="35.6" fill="#FEFFFF" transform="matrix(1.00, 0.00, -0.00, -1.00, 253.9, 60.0)">c</text><text xml:space="preserve" font-family="Helvetica-Light" font-size="35.6" fill="#FEFFFF" transform="matrix(1.00, 0.00, -0.00, -1.00, 273.7, 60.0)">h</text><text xml:space="preserve" font-family="Helvetica-Light" font-size="35.6" fill="#FEFFFF" transform="matrix(1.00, 0.00, -0.00, -1.00, 293.5, 60.0)">e</text><text xml:space="preserve" font-family="Helvetica-Light" font-size="35.6" fill="#FEFFFF" transform="matrix(1.00, 0.00, -0.00, -1.00, 313.3, 60.0)">,</text><text xml:space="preserve" font-family="Helvetica-Light" font-size="35.6" fill="#FEFFFF" transform="matrix(1.00, 0.00, -0.00, -1.00, 323.2, 60.0)"> </text><text xml:space="preserve" font-family="Helvetica-Light" font-size="35.6" fill="#FEFFFF" transform="matrix(1.00, 0.00, -0.00, -1.00, 333.1, 60.0)">a</text><text xml:space="preserve" font-family="Helvetica-Light" font-size="35.6" fill="#FEFFFF" transform="matrix(1.00, 0.00, -0.00, -1.00, 352.9, 60.0)">n</text><text xml:space="preserve" font-family="Helvetica-Light" font-size="35.6" fill="#FEFFFF" transform="matrix(1.00, 0.00, -0.00, -1.00, 372.8, 60.0)">d</text><text xml:space="preserve" font-family="Helvetica-Light" font-size="35.6" fill="#FEFFFF" transform="matrix(1.00, 0.00, -0.00, -1.00, 394.5, 60.0)"> </text><text xml:space="preserve" font-family="Helvetica-Light" font-size="35.6" fill="#FEFFFF" transform="matrix(1.00, 0.00, -0.00, -1.00, 404.4, 60.0)">h</text><text xml:space="preserve" font-family="Helvetica-Light" font-size="35.6" fill="#FEFFFF" transform="matrix(1.00, 0.00, -0.00, -1.00, 424.3, 60.0)">o</text><text xml:space="preserve" font-family="Helvetica-Light" font-size="35.6" fill="#FEFFFF" transform="matrix(1.00, 0.00, -0.00, -1.00, 444.1, 60.0)">t</text><text xml:space="preserve" font-family="Helvetica-Light" font-size="35.6" fill="#FEFFFF" transform="matrix(1.00, 0.00, -0.00, -1.00, 454.0, 60.0)">-</text><text xml:space="preserve" font-family="Helvetica-Light" font-size="35.6" fill="#FEFFFF" transform="matrix(1.00, 0.00, -0.00, -1.00, 465.8, 60.0)">r</text><text xml:space="preserve" font-family="Helvetica-Light" font-size="35.6" fill="#FEFFFF" transform="matrix(1.00, 0.00, -0.00, -1.00, 477.1, 60.0)">e</text><text xml:space="preserve" font-family="Helvetica-Light" font-size="35.6" fill="#FEFFFF" transform="matrix(1.00, 0.00, -0.00, -1.00, 496.9, 60.0)">l</text><text xml:space="preserve" font-family="Helvetica-Light" font-size="35.6" fill="#FEFFFF" transform="matrix(1.00, 0.00, -0.00, -1.00, 504.8, 60.0)">o</text><text xml:space="preserve" font-family="Helvetica-Light" font-size="35.6" fill="#FEFFFF" transform="matrix(1.00, 0.00, -0.00, -1.00, 524.6, 60.0)">a</text><text xml:space="preserve" font-family="Helvetica-Light" font-size="35.6" fill="#FEFFFF" transform="matrix(1.00, 0.00, -0.00, -1.00, 544.4, 60.0)">d</text><text xml:space="preserve" font-family="Helvetica-Light" font-size="35.6" fill="#FEFFFF" transform="matrix(1.00, 0.00, -0.00, -1.00, 566.2, 60.0)"> </text><text xml:space="preserve" font-family="Helvetica-Light" font-size="35.6" fill="#FEFFFF" transform="matrix(1.00, 0.00, -0.00, -1.00, 34.0, 10.0)">r</text><text xml:space="preserve" font-family="Helvetica-Light" font-size="35.6" fill="#FEFFFF" transform="matrix(1.00, 0.00, -0.00, -1.00, 45.2, 10.0)">e</text><text xml:space="preserve" font-family="Helvetica-Light" font-size="35.6" fill="#FEFFFF" transform="matrix(1.00, 0.00, -0.00, -1.00, 65.0, 10.0)">m</text><text xml:space="preserve" font-family="Helvetica-Light" font-size="35.6" fill="#FEFFFF" transform="matrix(1.00, 0.00, -0.00, -1.00, 94.7, 10.0)">o</text><text xml:space="preserve" font-family="Helvetica-Light" font-size="35.6" fill="#FEFFFF" transform="matrix(1.00, 0.00, -0.00, -1.00, 114.5, 10.0)">t</text><text xml:space="preserve" font-family="Helvetica-Light" font-size="35.6" fill="#FEFFFF" transform="matrix(1.00, 0.00, -0.00, -1.00, 124.5, 10.0)">e</text><text xml:space="preserve" font-family="Helvetica-Light" font-size="35.6" fill="#FEFFFF" transform="matrix(1.00, 0.00, -0.00, -1.00, 144.3, 10.0)"> </text><text xml:space="preserve" font-family="Helvetica-Light" font-size="35.6" fill="#FEFFFF" transform="matrix(1.00, 0.00, -0.00, -1.00, 154.2, 10.0)">c</text><text xml:space="preserve" font-family="Helvetica-Light" font-size="35.6" fill="#FEFFFF" transform="matrix(1.00, 0.00, -0.00, -1.00, 174.0, 10.0)">o</text><text xml:space="preserve" font-family="Helvetica-Light" font-size="35.6" fill="#FEFFFF" transform="matrix(1.00, 0.00, -0.00, -1.00, 193.8, 10.0)">n</text><text xml:space="preserve" font-family="Helvetica-Light" font-size="35.6" fill="#FEFFFF" transform="matrix(1.00, 0.00, -0.00, -1.00, 213.6, 10.0)">t</text><text xml:space="preserve" font-family="Helvetica-Light" font-size="35.6" fill="#FEFFFF" transform="matrix(1.00, 0.00, -0.00, -1.00, 223.5, 10.0)">e</text><text xml:space="preserve" font-family="Helvetica-Light" font-size="35.6" fill="#FEFFFF" transform="matrix(1.00, 0.00, -0.00, -1.00, 243.3, 10.0)">n</text><text xml:space="preserve" font-family="Helvetica-Light" font-size="35.6" fill="#FEFFFF" transform="matrix(1.00, 0.00, -0.00, -1.00, 263.2, 10.0)">t</text><text xml:space="preserve" font-family="Helvetica-Light" font-size="35.6" fill="#FEFFFF" transform="matrix(1.00, 0.00, -0.00, -1.00, 273.1, 10.0)"> </text><text xml:space="preserve" font-family="Helvetica-Light" font-size="35.6" fill="#FEFFFF" transform="matrix(1.00, 0.00, -0.00, -1.00, 283.0, 10.0)">(</text><text xml:space="preserve" font-family="Helvetica-Light" font-size="35.6" fill="#FEFFFF" transform="matrix(1.00, 0.00, -0.00, -1.00, 294.8, 10.0)">H</text><text xml:space="preserve" font-family="Helvetica-Light" font-size="35.6" fill="#FEFFFF" transform="matrix(1.00, 0.00, -0.00, -1.00, 320.6, 10.0)">T</text><text xml:space="preserve" font-family="Helvetica-Light" font-size="35.6" fill="#FEFFFF" transform="matrix(1.00, 0.00, -0.00, -1.00, 340.4, 10.0)">M</text><text xml:space="preserve" font-family="Helvetica-Light" font-size="35.6" fill="#FEFFFF" transform="matrix(1.00, 0.00, -0.00, -1.00, 370.1, 10.0)">L</text><text xml:space="preserve" font-family="Helvetica-Light" font-size="35.6" fill="#FEFFFF" transform="matrix(1.00, 0.00, -0.00, -1.00, 389.9, 10.0)">/</text><text xml:space="preserve" font-family="Helvetica-Light" font-size="35.6" fill="#FEFFFF" transform="matrix(1.00, 0.00, -0.00, -1.00, 399.8, 10.0)">C</text><text xml:space="preserve" font-family="Helvetica-Light" font-size="35.6" fill="#FEFFFF" transform="matrix(1.00, 0.00, -0.00, -1.00, 425.5, 10.0)">S</text><text xml:space="preserve" font-family="Helvetica-Light" font-size="35.6" fill="#FEFFFF" transform="matrix(1.00, 0.00, -0.00, -1.00, 447.3, 10.0)">S</text><text xml:space="preserve" font-family="Helvetica-Light" font-size="35.6" fill="#FEFFFF" transform="matrix(1.00, 0.00, -0.00, -1.00, 469.1, 10.0)">/</text><text xml:space="preserve" font-family="Helvetica-Light" font-size="35.6" fill="#FEFFFF" transform="matrix(1.00, 0.00, -0.00, -1.00, 479.0, 10.0)">J</text><text xml:space="preserve" font-family="Helvetica-Light" font-size="35.6" fill="#FEFFFF" transform="matrix(1.00, 0.00, -0.00, -1.00, 496.8, 10.0)">S</text><text xml:space="preserve" font-family="Helvetica-Light" font-size="35.6" fill="#FEFFFF" transform="matrix(1.00, 0.00, -0.00, -1.00, 518.6, 10.0)">)</text></g></svg>