<?xml version="1.0" encoding="UTF-8" standalone="no"?><svg xmlns="http://www.w3.org/2000/svg" xmlns:xlink="http://www.w3.org/1999/xlink" clip-rule="evenodd" stroke-miterlimit="4.00" viewBox="0 0 1024 768"><desc>SVG generated by Keynote</desc><defs></defs><g transform="matrix(1.00, 0.00, -0.00, -1.00, 0.0, 768.0)"><g><clipPath id="clip-66"><path d="M 0.0 768.0 L 1024.0 768.0 L 1024.0 0.0 L 0.0 0.0 Z M 0.0 768.0 "></path></clipPath><g clip-path="url(#clip-66)"><image xlink:href="../../25419986-73FB-4357-A089-2F0FE3F450AF/assets/E7ABA782A15EA3475B4CFCC80A2FEB63.jpeg" width="1024.00" height="768.00" transform="matrix(1.00, 0.00, -0.00, -1.00, 0.0, 768.0)"></image></g></g><text xml:space="preserve" font-family="Helvetica-Light" font-size="26.7" fill="#FEFFFF" transform="matrix(1.00, 0.00, -0.00, -1.00, 93.4, 432.9)">•</text><text xml:space="preserve" font-family="Helvetica-Light" font-size="35.6" fill="#FEFFFF" transform="matrix(1.00, 0.00, -0.00, -1.00, 127.0, 430.0)">D</text><text xml:space="preserve" font-family="Helvetica-Light" font-size="35.6" fill="#FEFFFF" transform="matrix(1.00, 0.00, -0.00, -1.00, 152.7, 430.0)">o</text><text xml:space="preserve" font-family="Helvetica-Light" font-size="35.6" fill="#FEFFFF" transform="matrix(1.00, 0.00, -0.00, -1.00, 172.5, 430.0)">w</text><text xml:space="preserve" font-family="Helvetica-Light" font-size="35.6" fill="#FEFFFF" transform="matrix(1.00, 0.00, -0.00, -1.00, 198.3, 430.0)">n</text><text xml:space="preserve" font-family="Helvetica-Light" font-size="35.6" fill="#FEFFFF" transform="matrix(1.00, 0.00, -0.00, -1.00, 218.1, 430.0)">l</text><text xml:space="preserve" font-family="Helvetica-Light" font-size="35.6" fill="#FEFFFF" transform="matrix(1.00, 0.00, -0.00, -1.00, 226.0, 430.0)">o</text><text xml:space="preserve" font-family="Helvetica-Light" font-size="35.6" fill="#FEFFFF" transform="matrix(1.00, 0.00, -0.00, -1.00, 245.8, 430.0)">a</text><text xml:space="preserve" font-family="Helvetica-Light" font-size="35.6" fill="#FEFFFF" transform="matrix(1.00, 0.00, -0.00, -1.00, 265.6, 430.0)">d</text><text xml:space="preserve" font-family="Helvetica-Light" font-size="35.6" fill="#FEFFFF" transform="matrix(1.00, 0.00, -0.00, -1.00, 287.4, 430.0)">,</text><text xml:space="preserve" font-family="Helvetica-Light" font-size="35.6" fill="#FEFFFF" transform="matrix(1.00, 0.00, -0.00, -1.00, 297.3, 430.0)"> </text><text xml:space="preserve" font-family="Helvetica-Light" font-size="35.6" fill="#FEFFFF" transform="matrix(1.00, 0.00, -0.00, -1.00, 307.2, 430.0)">c</text><text xml:space="preserve" font-family="Helvetica-Light" font-size="35.6" fill="#FEFFFF" transform="matrix(1.00, 0.00, -0.00, -1.00, 327.0, 430.0)">a</text><text xml:space="preserve" font-family="Helvetica-Light" font-size="35.6" fill="#FEFFFF" transform="matrix(1.00, 0.00, -0.00, -1.00, 346.9, 430.0)">c</text><text xml:space="preserve" font-family="Helvetica-Light" font-size="35.6" fill="#FEFFFF" transform="matrix(1.00, 0.00, -0.00, -1.00, 366.7, 430.0)">h</text><text xml:space="preserve" font-family="Helvetica-Light" font-size="35.6" fill="#FEFFFF" transform="matrix(1.00, 0.00, -0.00, -1.00, 386.5, 430.0)">e</text><text xml:space="preserve" font-family="Helvetica-Light" font-size="35.6" fill="#FEFFFF" transform="matrix(1.00, 0.00, -0.00, -1.00, 406.3, 430.0)">,</text><text xml:space="preserve" font-family="Helvetica-Light" font-size="35.6" fill="#FEFFFF" transform="matrix(1.00, 0.00, -0.00, -1.00, 416.2, 430.0)"> </text><text xml:space="preserve" font-family="Helvetica-Light" font-size="35.6" fill="#FEFFFF" transform="matrix(1.00, 0.00, -0.00, -1.00, 426.1, 430.0)">a</text><text xml:space="preserve" font-family="Helvetica-Light" font-size="35.6" fill="#FEFFFF" transform="matrix(1.00, 0.00, -0.00, -1.00, 445.9, 430.0)">n</text><text xml:space="preserve" font-family="Helvetica-Light" font-size="35.6" fill="#FEFFFF" transform="matrix(1.00, 0.00, -0.00, -1.00, 465.8, 430.0)">d</text><text xml:space="preserve" font-family="Helvetica-Light" font-size="35.6" fill="#FEFFFF" transform="matrix(1.00, 0.00, -0.00, -1.00, 487.5, 430.0)"> </text><text xml:space="preserve" font-family="Helvetica-Light" font-size="35.6" fill="#FEFFFF" transform="matrix(1.00, 0.00, -0.00, -1.00, 497.4, 430.0)">h</text><text xml:space="preserve" font-family="Helvetica-Light" font-size="35.6" fill="#FEFFFF" transform="matrix(1.00, 0.00, -0.00, -1.00, 517.3, 430.0)">o</text><text xml:space="preserve" font-family="Helvetica-Light" font-size="35.6" fill="#FEFFFF" transform="matrix(1.00, 0.00, -0.00, -1.00, 537.1, 430.0)">t</text><text xml:space="preserve" font-family="Helvetica-Light" font-size="35.6" fill="#FEFFFF" transform="matrix(1.00, 0.00, -0.00, -1.00, 547.0, 430.0)">-</text><text xml:space="preserve" font-family="Helvetica-Light" font-size="35.6" fill="#FEFFFF" transform="matrix(1.00, 0.00, -0.00, -1.00, 558.8, 430.0)">r</text><text xml:space="preserve" font-family="Helvetica-Light" font-size="35.6" fill="#FEFFFF" transform="matrix(1.00, 0.00, -0.00, -1.00, 570.1, 430.0)">e</text><text xml:space="preserve" font-family="Helvetica-Light" font-size="35.6" fill="#FEFFFF" transform="matrix(1.00, 0.00, -0.00, -1.00, 589.9, 430.0)">l</text><text xml:space="preserve" font-family="Helvetica-Light" font-size="35.6" fill="#FEFFFF" transform="matrix(1.00, 0.00, -0.00, -1.00, 597.8, 430.0)">o</text><text xml:space="preserve" font-family="Helvetica-Light" font-size="35.6" fill="#FEFFFF" transform="matrix(1.00, 0.00, -0.00, -1.00, 617.6, 430.0)">a</text><text xml:space="preserve" font-family="Helvetica-Light" font-size="35.6" fill="#FEFFFF" transform="matrix(1.00, 0.00, -0.00, -1.00, 637.4, 430.0)">d</text><text xml:space="preserve" font-family="Helvetica-Light" font-size="35.6" fill="#FEFFFF" transform="matrix(1.00, 0.00, -0.00, -1.00, 659.2, 430.0)"> </text><text xml:space="preserve" font-family="Helvetica-Light" font-size="35.6" fill="#FEFFFF" transform="matrix(1.00, 0.00, -0.00, -1.00, 127.0, 380.0)">r</text><text xml:space="preserve" font-family="Helvetica-Light" font-size="35.6" fill="#FEFFFF" transform="matrix(1.00, 0.00, -0.00, -1.00, 138.2, 380.0)">e</text><text xml:space="preserve" font-family="Helvetica-Light" font-size="35.6" fill="#FEFFFF" transform="matrix(1.00, 0.00, -0.00, -1.00, 158.0, 380.0)">m</text><text xml:space="preserve" font-family="Helvetica-Light" font-size="35.6" fill="#FEFFFF" transform="matrix(1.00, 0.00, -0.00, -1.00, 187.7, 380.0)">o</text><text xml:space="preserve" font-family="Helvetica-Light" font-size="35.6" fill="#FEFFFF" transform="matrix(1.00, 0.00, -0.00, -1.00, 207.5, 380.0)">t</text><text xml:space="preserve" font-family="Helvetica-Light" font-size="35.6" fill="#FEFFFF" transform="matrix(1.00, 0.00, -0.00, -1.00, 217.5, 380.0)">e</text><text xml:space="preserve" font-family="Helvetica-Light" font-size="35.6" fill="#FEFFFF" transform="matrix(1.00, 0.00, -0.00, -1.00, 237.3, 380.0)"> </text><text xml:space="preserve" font-family="Helvetica-Light" font-size="35.6" fill="#FEFFFF" transform="matrix(1.00, 0.00, -0.00, -1.00, 247.2, 380.0)">c</text><text xml:space="preserve" font-family="Helvetica-Light" font-size="35.6" fill="#FEFFFF" transform="matrix(1.00, 0.00, -0.00, -1.00, 267.0, 380.0)">o</text><text xml:space="preserve" font-family="Helvetica-Light" font-size="35.6" fill="#FEFFFF" transform="matrix(1.00, 0.00, -0.00, -1.00, 286.8, 380.0)">n</text><text xml:space="preserve" font-family="Helvetica-Light" font-size="35.6" fill="#FEFFFF" transform="matrix(1.00, 0.00, -0.00, -1.00, 306.6, 380.0)">t</text><text xml:space="preserve" font-family="Helvetica-Light" font-size="35.6" fill="#FEFFFF" transform="matrix(1.00, 0.00, -0.00, -1.00, 316.5, 380.0)">e</text><text xml:space="preserve" font-family="Helvetica-Light" font-size="35.6" fill="#FEFFFF" transform="matrix(1.00, 0.00, -0.00, -1.00, 336.3, 380.0)">n</text><text xml:space="preserve" font-family="Helvetica-Light" font-size="35.6" fill="#FEFFFF" transform="matrix(1.00, 0.00, -0.00, -1.00, 356.2, 380.0)">t</text><text xml:space="preserve" font-family="Helvetica-Light" font-size="35.6" fill="#FEFFFF" transform="matrix(1.00, 0.00, -0.00, -1.00, 366.1, 380.0)"> </text><text xml:space="preserve" font-family="Helvetica-Light" font-size="35.6" fill="#FEFFFF" transform="matrix(1.00, 0.00, -0.00, -1.00, 376.0, 380.0)">(</text><text xml:space="preserve" font-family="Helvetica-Light" font-size="35.6" fill="#FEFFFF" transform="matrix(1.00, 0.00, -0.00, -1.00, 387.8, 380.0)">H</text><text xml:space="preserve" font-family="Helvetica-Light" font-size="35.6" fill="#FEFFFF" transform="matrix(1.00, 0.00, -0.00, -1.00, 413.6, 380.0)">T</text><text xml:space="preserve" font-family="Helvetica-Light" font-size="35.6" fill="#FEFFFF" transform="matrix(1.00, 0.00, -0.00, -1.00, 433.4, 380.0)">M</text><text xml:space="preserve" font-family="Helvetica-Light" font-size="35.6" fill="#FEFFFF" transform="matrix(1.00, 0.00, -0.00, -1.00, 463.1, 380.0)">L</text><text xml:space="preserve" font-family="Helvetica-Light" font-size="35.6" fill="#FEFFFF" transform="matrix(1.00, 0.00, -0.00, -1.00, 482.9, 380.0)">/</text><text xml:space="preserve" font-family="Helvetica-Light" font-size="35.6" fill="#FEFFFF" transform="matrix(1.00, 0.00, -0.00, -1.00, 492.8, 380.0)">C</text><text xml:space="preserve" font-family="Helvetica-Light" font-size="35.6" fill="#FEFFFF" transform="matrix(1.00, 0.00, -0.00, -1.00, 518.5, 380.0)">S</text><text xml:space="preserve" font-family="Helvetica-Light" font-size="35.6" fill="#FEFFFF" transform="matrix(1.00, 0.00, -0.00, -1.00, 540.3, 380.0)">S</text><text xml:space="preserve" font-family="Helvetica-Light" font-size="35.6" fill="#FEFFFF" transform="matrix(1.00, 0.00, -0.00, -1.00, 562.1, 380.0)">/</text><text xml:space="preserve" font-family="Helvetica-Light" font-size="35.6" fill="#FEFFFF" transform="matrix(1.00, 0.00, -0.00, -1.00, 572.0, 380.0)">J</text><text xml:space="preserve" font-family="Helvetica-Light" font-size="35.6" fill="#FEFFFF" transform="matrix(1.00, 0.00, -0.00, -1.00, 589.8, 380.0)">S</text><text xml:space="preserve" font-family="Helvetica-Light" font-size="35.6" fill="#FEFFFF" transform="matrix(1.00, 0.00, -0.00, -1.00, 611.6, 380.0)">)</text><text xml:space="preserve" font-family="Helvetica-Light" font-size="26.7" fill="#FEFFFF" transform="matrix(1.00, 0.00, -0.00, -1.00, 93.4, 332.1)">•</text><text xml:space="preserve" font-family="Helvetica-Light" font-size="35.6" fill="#FEFFFF" transform="matrix(1.00, 0.00, -0.00, -1.00, 127.0, 329.0)">A</text><text xml:space="preserve" font-family="Helvetica-Light" font-size="35.6" fill="#FEFFFF" transform="matrix(1.00, 0.00, -0.00, -1.00, 150.8, 329.0)">l</text><text xml:space="preserve" font-family="Helvetica-Light" font-size="35.6" fill="#FEFFFF" transform="matrix(1.00, 0.00, -0.00, -1.00, 158.7, 329.0)">l</text><text xml:space="preserve" font-family="Helvetica-Light" font-size="35.6" fill="#FEFFFF" transform="matrix(1.00, 0.00, -0.00, -1.00, 166.6, 329.0)">o</text><text xml:space="preserve" font-family="Helvetica-Light" font-size="35.6" fill="#FEFFFF" transform="matrix(1.00, 0.00, -0.00, -1.00, 186.4, 329.0)">w</text><text xml:space="preserve" font-family="Helvetica-Light" font-size="35.6" fill="#FEFFFF" transform="matrix(1.00, 0.00, -0.00, -1.00, 212.1, 329.0)">e</text><text xml:space="preserve" font-family="Helvetica-Light" font-size="35.6" fill="#FEFFFF" transform="matrix(1.00, 0.00, -0.00, -1.00, 232.0, 329.0)">d</text><text xml:space="preserve" font-family="Helvetica-Light" font-size="35.6" fill="#FEFFFF" transform="matrix(1.00, 0.00, -0.00, -1.00, 253.7, 329.0)"> </text><text xml:space="preserve" font-family="Helvetica-Light" font-size="35.6" fill="#FEFFFF" transform="matrix(1.00, 0.00, -0.00, -1.00, 263.6, 329.0)">b</text><text xml:space="preserve" font-family="Helvetica-Light" font-size="35.6" fill="#FEFFFF" transform="matrix(1.00, 0.00, -0.00, -1.00, 285.4, 329.0)">y</text><text xml:space="preserve" font-family="Helvetica-Light" font-size="35.6" fill="#FEFFFF" transform="matrix(1.00, 0.00, -0.00, -1.00, 303.2, 329.0)"> </text><text xml:space="preserve" font-family="Helvetica-Light" font-size="35.6" fill="#FEFFFF" transform="matrix(1.00, 0.00, -0.00, -1.00, 313.1, 329.0)">A</text><text xml:space="preserve" font-family="Helvetica-Light" font-size="35.6" fill="#FEFFFF" transform="matrix(1.00, 0.00, -0.00, -1.00, 336.9, 329.0)">p</text><text xml:space="preserve" font-family="Helvetica-Light" font-size="35.6" fill="#FEFFFF" transform="matrix(1.00, 0.00, -0.00, -1.00, 358.7, 329.0)">p</text><text xml:space="preserve" font-family="Helvetica-Light" font-size="35.6" fill="#FEFFFF" transform="matrix(1.00, 0.00, -0.00, -1.00, 380.5, 329.0)">l</text><text xml:space="preserve" font-family="Helvetica-Light" font-size="35.6" fill="#FEFFFF" transform="matrix(1.00, 0.00, -0.00, -1.00, 388.4, 329.0)">e</text><text xml:space="preserve" font-family="Helvetica-Light" font-size="35.6" fill="#FEFFFF" transform="matrix(1.00, 0.00, -0.00, -1.00, 408.2, 329.0)"> </text><text xml:space="preserve" font-family="Helvetica-Light" font-size="35.6" fill="#FEFFFF" transform="matrix(1.00, 0.00, -0.00, -1.00, 418.1, 329.0)">(</text><text xml:space="preserve" font-family="Helvetica-Light" font-size="35.6" fill="#FEFFFF" transform="matrix(1.00, 0.00, -0.00, -1.00, 430.0, 329.0)">A</text><text xml:space="preserve" font-family="Helvetica-Light" font-size="35.6" fill="#FEFFFF" transform="matrix(1.00, 0.00, -0.00, -1.00, 453.7, 329.0)">p</text><text xml:space="preserve" font-family="Helvetica-Light" font-size="35.6" fill="#FEFFFF" transform="matrix(1.00, 0.00, -0.00, -1.00, 475.5, 329.0)">p</text><text xml:space="preserve" font-family="Helvetica-Light" font-size="35.6" fill="#FEFFFF" transform="matrix(1.00, 0.00, -0.00, -1.00, 497.3, 329.0)"> </text><text xml:space="preserve" font-family="Helvetica-Light" font-size="35.6" fill="#FEFFFF" transform="matrix(1.00, 0.00, -0.00, -1.00, 507.2, 329.0)">S</text><text xml:space="preserve" font-family="Helvetica-Light" font-size="35.6" fill="#FEFFFF" transform="matrix(1.00, 0.00, -0.00, -1.00, 529.0, 329.0)">t</text><text xml:space="preserve" font-family="Helvetica-Light" font-size="35.6" fill="#FEFFFF" transform="matrix(1.00, 0.00, -0.00, -1.00, 538.9, 329.0)">o</text><text xml:space="preserve" font-family="Helvetica-Light" font-size="35.6" fill="#FEFFFF" transform="matrix(1.00, 0.00, -0.00, -1.00, 558.7, 329.0)">r</text><text xml:space="preserve" font-family="Helvetica-Light" font-size="35.6" fill="#FEFFFF" transform="matrix(1.00, 0.00, -0.00, -1.00, 569.9, 329.0)">e</text><text xml:space="preserve" font-family="Helvetica-Light" font-size="35.6" fill="#FEFFFF" transform="matrix(1.00, 0.00, -0.00, -1.00, 589.7, 329.0)"> </text><text xml:space="preserve" font-family="Helvetica-Light" font-size="35.6" fill="#FEFFFF" transform="matrix(1.00, 0.00, -0.00, -1.00, 127.0, 279.0)">R</text><text xml:space="preserve" font-family="Helvetica-Light" font-size="35.6" fill="#FEFFFF" transform="matrix(1.00, 0.00, -0.00, -1.00, 150.8, 279.0)">e</text><text xml:space="preserve" font-family="Helvetica-Light" font-size="35.6" fill="#FEFFFF" transform="matrix(1.00, 0.00, -0.00, -1.00, 170.6, 279.0)">v</text><text xml:space="preserve" font-family="Helvetica-Light" font-size="35.6" fill="#FEFFFF" transform="matrix(1.00, 0.00, -0.00, -1.00, 188.4, 279.0)">i</text><text xml:space="preserve" font-family="Helvetica-Light" font-size="35.6" fill="#FEFFFF" transform="matrix(1.00, 0.00, -0.00, -1.00, 196.3, 279.0)">e</text><text xml:space="preserve" font-family="Helvetica-Light" font-size="35.6" fill="#FEFFFF" transform="matrix(1.00, 0.00, -0.00, -1.00, 216.1, 279.0)">w</text><text xml:space="preserve" font-family="Helvetica-Light" font-size="35.6" fill="#FEFFFF" transform="matrix(1.00, 0.00, -0.00, -1.00, 241.9, 279.0)"> </text><text xml:space="preserve" font-family="Helvetica-Light" font-size="35.6" fill="#FEFFFF" transform="matrix(1.00, 0.00, -0.00, -1.00, 251.8, 279.0)">G</text><text xml:space="preserve" font-family="Helvetica-Light" font-size="35.6" fill="#FEFFFF" transform="matrix(1.00, 0.00, -0.00, -1.00, 279.5, 279.0)">u</text><text xml:space="preserve" font-family="Helvetica-Light" font-size="35.6" fill="#FEFFFF" transform="matrix(1.00, 0.00, -0.00, -1.00, 299.3, 279.0)">i</text><text xml:space="preserve" font-family="Helvetica-Light" font-size="35.6" fill="#FEFFFF" transform="matrix(1.00, 0.00, -0.00, -1.00, 307.2, 279.0)">d</text><text xml:space="preserve" font-family="Helvetica-Light" font-size="35.6" fill="#FEFFFF" transform="matrix(1.00, 0.00, -0.00, -1.00, 329.0, 279.0)">e</text><text xml:space="preserve" font-family="Helvetica-Light" font-size="35.6" fill="#FEFFFF" transform="matrix(1.00, 0.00, -0.00, -1.00, 348.8, 279.0)">l</text><text xml:space="preserve" font-family="Helvetica-Light" font-size="35.6" fill="#FEFFFF" transform="matrix(1.00, 0.00, -0.00, -1.00, 356.7, 279.0)">i</text><text xml:space="preserve" font-family="Helvetica-Light" font-size="35.6" fill="#FEFFFF" transform="matrix(1.00, 0.00, -0.00, -1.00, 364.6, 279.0)">n</text><text xml:space="preserve" font-family="Helvetica-Light" font-size="35.6" fill="#FEFFFF" transform="matrix(1.00, 0.00, -0.00, -1.00, 384.5, 279.0)">e</text><text xml:space="preserve" font-family="Helvetica-Light" font-size="35.6" fill="#FEFFFF" transform="matrix(1.00, 0.00, -0.00, -1.00, 404.3, 279.0)">s</text><text xml:space="preserve" font-family="Helvetica-Light" font-size="35.6" fill="#FEFFFF" transform="matrix(1.00, 0.00, -0.00, -1.00, 422.1, 279.0)">)</text><text xml:space="preserve" font-family="Helvetica-Light" font-size="26.7" fill="#FEFFFF" transform="matrix(1.00, 0.00, -0.00, -1.00, 93.4, 231.3)">•</text><text xml:space="preserve" font-family="Helvetica-Light" font-size="35.6" fill="#FEFFFF" transform="matrix(1.00, 0.00, -0.00, -1.00, 127.0, 228.0)">O</text><text xml:space="preserve" font-family="Helvetica-Light" font-size="35.6" fill="#FEFFFF" transform="matrix(1.00, 0.00, -0.00, -1.00, 154.7, 228.0)">n</text><text xml:space="preserve" font-family="Helvetica-Light" font-size="35.6" fill="#FEFFFF" transform="matrix(1.00, 0.00, -0.00, -1.00, 174.5, 228.0)">l</text><text xml:space="preserve" font-family="Helvetica-Light" font-size="35.6" fill="#FEFFFF" transform="matrix(1.00, 0.00, -0.00, -1.00, 182.5, 228.0)">y</text><text xml:space="preserve" font-family="Helvetica-Light" font-size="35.6" fill="#FEFFFF" transform="matrix(1.00, 0.00, -0.00, -1.00, 200.3, 228.0)"> </text><text xml:space="preserve" font-family="Helvetica-Light" font-size="35.6" fill="#FEFFFF" transform="matrix(1.00, 0.00, -0.00, -1.00, 210.2, 228.0)">i</text><text xml:space="preserve" font-family="Helvetica-Light" font-size="35.6" fill="#FEFFFF" transform="matrix(1.00, 0.00, -0.00, -1.00, 218.1, 228.0)">t</text><text xml:space="preserve" font-family="Helvetica-Light" font-size="35.6" fill="#FEFFFF" transform="matrix(1.00, 0.00, -0.00, -1.00, 228.0, 228.0)">e</text><text xml:space="preserve" font-family="Helvetica-Light" font-size="35.6" fill="#FEFFFF" transform="matrix(1.00, 0.00, -0.00, -1.00, 247.8, 228.0)">m</text><text xml:space="preserve" font-family="Helvetica-Light" font-size="35.6" fill="#FEFFFF" transform="matrix(1.00, 0.00, -0.00, -1.00, 277.5, 228.0)">s</text><text xml:space="preserve" font-family="Helvetica-Light" font-size="35.6" fill="#FEFFFF" transform="matrix(1.00, 0.00, -0.00, -1.00, 295.3, 228.0)"> </text><text xml:space="preserve" font-family="Helvetica-Light" font-size="35.6" fill="#FEFFFF" transform="matrix(1.00, 0.00, -0.00, -1.00, 305.2, 228.0)">t</text><text xml:space="preserve" font-family="Helvetica-Light" font-size="35.6" fill="#FEFFFF" transform="matrix(1.00, 0.00, -0.00, -1.00, 315.1, 228.0)">h</text><text xml:space="preserve" font-family="Helvetica-Light" font-size="35.6" fill="#FEFFFF" transform="matrix(1.00, 0.00, -0.00, -1.00, 335.0, 228.0)">a</text><text xml:space="preserve" font-family="Helvetica-Light" font-size="35.6" fill="#FEFFFF" transform="matrix(1.00, 0.00, -0.00, -1.00, 354.8, 228.0)">t</text><text xml:space="preserve" font-family="Helvetica-Light" font-size="35.6" fill="#FEFFFF" transform="matrix(1.00, 0.00, -0.00, -1.00, 364.7, 228.0)"> </text><text xml:space="preserve" font-family="Helvetica-Light" font-size="35.6" fill="#FEFFFF" transform="matrix(1.00, 0.00, -0.00, -1.00, 374.6, 228.0)">a</text><text xml:space="preserve" font-family="Helvetica-Light" font-size="35.6" fill="#FEFFFF" transform="matrix(1.00, 0.00, -0.00, -1.00, 394.4, 228.0)">r</text><text xml:space="preserve" font-family="Helvetica-Light" font-size="35.6" fill="#FEFFFF" transform="matrix(1.00, 0.00, -0.00, -1.00, 405.6, 228.0)">e</text><text xml:space="preserve" font-family="Helvetica-Light" font-size="35.6" fill="#FEFFFF" transform="matrix(1.00, 0.00, -0.00, -1.00, 425.4, 228.0)"> </text><text xml:space="preserve" font-family="Helvetica-Light" font-size="35.6" fill="#FEFFFF" transform="matrix(1.00, 0.00, -0.00, -1.00, 435.4, 228.0)">p</text><text xml:space="preserve" font-family="Helvetica-Light" font-size="35.6" fill="#FEFFFF" transform="matrix(1.00, 0.00, -0.00, -1.00, 457.1, 228.0)">r</text><text xml:space="preserve" font-family="Helvetica-Light" font-size="35.6" fill="#FEFFFF" transform="matrix(1.00, 0.00, -0.00, -1.00, 468.4, 228.0)">o</text><text xml:space="preserve" font-family="Helvetica-Light" font-size="35.6" fill="#FEFFFF" transform="matrix(1.00, 0.00, -0.00, -1.00, 488.2, 228.0)">c</text><text xml:space="preserve" font-family="Helvetica-Light" font-size="35.6" fill="#FEFFFF" transform="matrix(1.00, 0.00, -0.00, -1.00, 508.0, 228.0)">e</text><text xml:space="preserve" font-family="Helvetica-Light" font-size="35.6" fill="#FEFFFF" transform="matrix(1.00, 0.00, -0.00, -1.00, 527.8, 228.0)">s</text><text xml:space="preserve" font-family="Helvetica-Light" font-size="35.6" fill="#FEFFFF" transform="matrix(1.00, 0.00, -0.00, -1.00, 545.6, 228.0)">s</text><text xml:space="preserve" font-family="Helvetica-Light" font-size="35.6" fill="#FEFFFF" transform="matrix(1.00, 0.00, -0.00, -1.00, 563.4, 228.0)">e</text><text xml:space="preserve" font-family="Helvetica-Light" font-size="35.6" fill="#FEFFFF" transform="matrix(1.00, 0.00, -0.00, -1.00, 583.3, 228.0)">d</text><text xml:space="preserve" font-family="Helvetica-Light" font-size="35.6" fill="#FEFFFF" transform="matrix(1.00, 0.00, -0.00, -1.00, 605.0, 228.0)"> </text><text xml:space="preserve" font-family="Helvetica-Light" font-size="35.6" fill="#FEFFFF" transform="matrix(1.00, 0.00, -0.00, -1.00, 614.9, 228.0)">b</text><text xml:space="preserve" font-family="Helvetica-Light" font-size="35.6" fill="#FEFFFF" transform="matrix(1.00, 0.00, -0.00, -1.00, 636.7, 228.0)">y</text><text xml:space="preserve" font-family="Helvetica-Light" font-size="35.6" fill="#FEFFFF" transform="matrix(1.00, 0.00, -0.00, -1.00, 654.5, 228.0)"> </text><text xml:space="preserve" font-family="Helvetica-Light" font-size="35.6" fill="#FEFFFF" transform="matrix(1.00, 0.00, -0.00, -1.00, 127.0, 178.0)">W</text><text xml:space="preserve" font-family="Helvetica-Light" font-size="35.6" fill="#FEFFFF" transform="matrix(1.00, 0.00, -0.00, -1.00, 158.0, 178.0)">e</text><text xml:space="preserve" font-family="Helvetica-Light" font-size="35.6" fill="#FEFFFF" transform="matrix(1.00, 0.00, -0.00, -1.00, 177.9, 178.0)">b</text><text xml:space="preserve" font-family="Helvetica-Light" font-size="35.6" fill="#FEFFFF" transform="matrix(1.00, 0.00, -0.00, -1.00, 199.6, 178.0)">K</text><text xml:space="preserve" font-family="Helvetica-Light" font-size="35.6" fill="#FEFFFF" transform="matrix(1.00, 0.00, -0.00, -1.00, 223.4, 178.0)">i</text><text xml:space="preserve" font-family="Helvetica-Light" font-size="35.6" fill="#FEFFFF" transform="matrix(1.00, 0.00, -0.00, -1.00, 231.3, 178.0)">t</text><text xml:space="preserve" font-family="Helvetica-Bold" font-weight="bold" font-size="35.6" fill="#FEFFFF" transform="matrix(1.00, 0.00, -0.00, -1.00, 296.0, 128.0)">U</text><text xml:space="preserve" font-family="Helvetica-Bold" font-weight="bold" font-size="35.6" fill="#FEFFFF" transform="matrix(1.00, 0.00, -0.00, -1.00, 321.7, 128.0)">n</text><text xml:space="preserve" font-family="Helvetica-Bold" font-weight="bold" font-size="35.6" fill="#FEFFFF" transform="matrix(1.00, 0.00, -0.00, -1.00, 343.5, 128.0)">t</text><text xml:space="preserve" font-family="Helvetica-Bold" font-weight="bold" font-size="35.6" fill="#FEFFFF" transform="matrix(1.00, 0.00, -0.00, -1.00, 355.4, 128.0)">i</text><text xml:space="preserve" font-family="Helvetica-Bold" font-weight="bold" font-size="35.6" fill="#FEFFFF" transform="matrix(1.00, 0.00, -0.00, -1.00, 365.3, 128.0)">l</text><text xml:space="preserve" font-family="Helvetica-Bold" font-weight="bold" font-size="35.6" fill="#FEFFFF" transform="matrix(1.00, 0.00, -0.00, -1.00, 375.2, 128.0)"> </text><text xml:space="preserve" font-family="Helvetica-Bold" font-weight="bold" font-size="35.6" fill="#FEFFFF" transform="matrix(1.00, 0.00, -0.00, -1.00, 385.1, 128.0)">n</text><text xml:space="preserve" font-family="Helvetica-Bold" font-weight="bold" font-size="35.6" fill="#FEFFFF" transform="matrix(1.00, 0.00, -0.00, -1.00, 406.8, 128.0)">o</text><text xml:space="preserve" font-family="Helvetica-Bold" font-weight="bold" font-size="35.6" fill="#FEFFFF" transform="matrix(1.00, 0.00, -0.00, -1.00, 428.6, 128.0)">w</text><text xml:space="preserve" font-family="Helvetica-Light" font-size="80.0" fill="#FEFFFF" transform="matrix(1.00, 0.00, -0.00, -1.00, 179.0, 649.0)">W</text><text xml:space="preserve" font-family="Helvetica-Light" font-size="80.0" fill="#FEFFFF" transform="matrix(1.00, 0.00, -0.00, -1.00, 250.1, 649.0)">h</text><text xml:space="preserve" font-family="Helvetica-Light" font-size="80.0" fill="#FEFFFF" transform="matrix(1.00, 0.00, -0.00, -1.00, 294.6, 649.0)">a</text><text xml:space="preserve" font-family="Helvetica-Light" font-size="80.0" fill="#FEFFFF" transform="matrix(1.00, 0.00, -0.00, -1.00, 339.1, 649.0)">t</text><text xml:space="preserve" font-family="Helvetica-Light" font-size="80.0" fill="#FEFFFF" transform="matrix(1.00, 0.00, -0.00, -1.00, 361.3, 649.0)"> </text><text xml:space="preserve" font-family="Helvetica-Light" font-size="80.0" fill="#FEFFFF" transform="matrix(1.00, 0.00, -0.00, -1.00, 383.6, 649.0)">i</text><text xml:space="preserve" font-family="Helvetica-Light" font-size="80.0" fill="#FEFFFF" transform="matrix(1.00, 0.00, -0.00, -1.00, 401.3, 649.0)">s</text><text xml:space="preserve" font-family="Helvetica-Light" font-size="80.0" fill="#FEFFFF" transform="matrix(1.00, 0.00, -0.00, -1.00, 441.3, 649.0)"> </text><text xml:space="preserve" font-family="Helvetica-Light" font-size="80.0" fill="#FEFFFF" transform="matrix(1.00, 0.00, -0.00, -1.00, 463.6, 649.0)">P</text><text xml:space="preserve" font-family="Helvetica-Light" font-size="80.0" fill="#FEFFFF" transform="matrix(1.00, 0.00, -0.00, -1.00, 512.4, 649.0)">h</text><text xml:space="preserve" font-family="Helvetica-Light" font-size="80.0" fill="#FEFFFF" transform="matrix(1.00, 0.00, -0.00, -1.00, 556.9, 649.0)">o</text><text xml:space="preserve" font-family="Helvetica-Light" font-size="80.0" fill="#FEFFFF" transform="matrix(1.00, 0.00, -0.00, -1.00, 601.4, 649.0)">n</text><text xml:space="preserve" font-family="Helvetica-Light" font-size="80.0" fill="#FEFFFF" transform="matrix(1.00, 0.00, -0.00, -1.00, 645.9, 649.0)">e</text><text xml:space="preserve" font-family="Helvetica-Light" font-size="80.0" fill="#FEFFFF" transform="matrix(1.00, 0.00, -0.00, -1.00, 690.4, 649.0)">G</text><text xml:space="preserve" font-family="Helvetica-Light" font-size="80.0" fill="#FEFFFF" transform="matrix(1.00, 0.00, -0.00, -1.00, 752.6, 649.0)">a</text><text xml:space="preserve" font-family="Helvetica-Light" font-size="80.0" fill="#FEFFFF" transform="matrix(1.00, 0.00, -0.00, -1.00, 797.1, 649.0)">p</text><text xml:space="preserve" font-family="Helvetica-Light" font-size="80.0" fill="#FEFFFF" transform="matrix(1.00, 0.00, -0.00, -1.00, 846.0, 649.0)"> </text><text xml:space="preserve" font-family="Helvetica-Light" font-size="80.0" fill="#FEFFFF" transform="matrix(1.00, 0.00, -0.00, -1.00, 252.0, 553.0)">C</text><text xml:space="preserve" font-family="Helvetica-Light" font-size="80.0" fill="#FEFFFF" transform="matrix(1.00, 0.00, -0.00, -1.00, 309.8, 553.0)">o</text><text xml:space="preserve" font-family="Helvetica-Light" font-size="80.0" fill="#FEFFFF" transform="matrix(1.00, 0.00, -0.00, -1.00, 354.2, 553.0)">n</text><text xml:space="preserve" font-family="Helvetica-Light" font-size="80.0" fill="#FEFFFF" transform="matrix(1.00, 0.00, -0.00, -1.00, 398.7, 553.0)">t</text><text xml:space="preserve" font-family="Helvetica-Light" font-size="80.0" fill="#FEFFFF" transform="matrix(1.00, 0.00, -0.00, -1.00, 421.0, 553.0)">e</text><text xml:space="preserve" font-family="Helvetica-Light" font-size="80.0" fill="#FEFFFF" transform="matrix(1.00, 0.00, -0.00, -1.00, 465.4, 553.0)">n</text><text xml:space="preserve" font-family="Helvetica-Light" font-size="80.0" fill="#FEFFFF" transform="matrix(1.00, 0.00, -0.00, -1.00, 509.9, 553.0)">t</text><text xml:space="preserve" font-family="Helvetica-Light" font-size="80.0" fill="#FEFFFF" transform="matrix(1.00, 0.00, -0.00, -1.00, 532.2, 553.0)"> </text><text xml:space="preserve" font-family="Helvetica-Light" font-size="80.0" fill="#FEFFFF" transform="matrix(1.00, 0.00, -0.00, -1.00, 554.4, 553.0)">S</text><text xml:space="preserve" font-family="Helvetica-Light" font-size="80.0" fill="#FEFFFF" transform="matrix(1.00, 0.00, -0.00, -1.00, 603.3, 553.0)">y</text><text xml:space="preserve" font-family="Helvetica-Light" font-size="80.0" fill="#FEFFFF" transform="matrix(1.00, 0.00, -0.00, -1.00, 643.3, 553.0)">n</text><text xml:space="preserve" font-family="Helvetica-Light" font-size="80.0" fill="#FEFFFF" transform="matrix(1.00, 0.00, -0.00, -1.00, 687.8, 553.0)">c</text><text xml:space="preserve" font-family="Helvetica-Light" font-size="80.0" fill="#FEFFFF" transform="matrix(1.00, 0.00, -0.00, -1.00, 732.2, 553.0)">?</text><image xlink:href="../../E8CEF00C-F10F-458E-94B4-774AEDB682D4/assets/68943E86DBBB63233E731A94AC248150.png" width="217.00" height="252.00" transform="matrix(1.00, 0.00, -0.00, -1.00, 735.0, 453.0)"></image><image xlink:href="../../E8CEF00C-F10F-458E-94B4-774AEDB682D4/assets/F48221462FAF0602EF03F7B990624075.png" width="903.00" height="423.00" transform="matrix(0.24, 0.00, -0.00, -0.24, 735.1, 201.4)"></image></g></svg>