<?xml version="1.0" encoding="UTF-8" standalone="no"?><svg xmlns="http://www.w3.org/2000/svg" xmlns:xlink="http://www.w3.org/1999/xlink" clip-rule="evenodd" stroke-miterlimit="4.00" viewBox="0 0 290 40"><desc>SVG generated by Keynote</desc><defs></defs><g transform="matrix(1.00, 0.00, -0.00, -1.00, 0.0, 40.0)"><text xml:space="preserve" font-family="Helvetica-Light" font-size="33.2" fill="#FEFFFF" transform="matrix(1.00, 0.00, -0.00, -1.00, 0.6, 14.3)">•</text><text xml:space="preserve" font-family="Helvetica-Light" font-size="44.2" fill="#FEFFFF" transform="matrix(1.00, 0.00, -0.00, -1.00, 43.0, 11.0)">o</text><text xml:space="preserve" font-family="Helvetica-Light" font-size="44.2" fill="#FEFFFF" transform="matrix(1.00, 0.00, -0.00, -1.00, 67.6, 11.0)">p</text><text xml:space="preserve" font-family="Helvetica-Light" font-size="44.2" fill="#FEFFFF" transform="matrix(1.00, 0.00, -0.00, -1.00, 94.6, 11.0)">e</text><text xml:space="preserve" font-family="Helvetica-Light" font-size="44.2" fill="#FEFFFF" transform="matrix(1.00, 0.00, -0.00, -1.00, 119.2, 11.0)">n</text><text xml:space="preserve" font-family="Helvetica-Light" font-size="44.2" fill="#FEFFFF" transform="matrix(1.00, 0.00, -0.00, -1.00, 143.8, 11.0)"> </text><text xml:space="preserve" font-family="Helvetica-Light" font-size="44.2" fill="#FEFFFF" transform="matrix(1.00, 0.00, -0.00, -1.00, 156.1, 11.0)">s</text><text xml:space="preserve" font-family="Helvetica-Light" font-size="44.2" fill="#FEFFFF" transform="matrix(1.00, 0.00, -0.00, -1.00, 178.2, 11.0)">o</text><text xml:space="preserve" font-family="Helvetica-Light" font-size="44.2" fill="#FEFFFF" transform="matrix(1.00, 0.00, -0.00, -1.00, 202.8, 11.0)">u</text><text xml:space="preserve" font-family="Helvetica-Light" font-size="44.2" fill="#FEFFFF" transform="matrix(1.00, 0.00, -0.00, -1.00, 227.4, 11.0)">r</text><text xml:space="preserve" font-family="Helvetica-Light" font-size="44.2" fill="#FEFFFF" transform="matrix(1.00, 0.00, -0.00, -1.00, 241.4, 11.0)">c</text><text xml:space="preserve" font-family="Helvetica-Light" font-size="44.2" fill="#FEFFFF" transform="matrix(1.00, 0.00, -0.00, -1.00, 266.0, 11.0)">e</text></g></svg>