<?xml version="1.0" encoding="UTF-8" standalone="no"?><svg xmlns="http://www.w3.org/2000/svg" xmlns:xlink="http://www.w3.org/1999/xlink" clip-rule="evenodd" stroke-miterlimit="4.00" viewBox="0 0 645 44"><desc>SVG generated by Keynote</desc><defs></defs><g transform="matrix(1.00, 0.00, -0.00, -1.00, 0.0, 44.0)"><text xml:space="preserve" font-family="Helvetica-Light" font-size="33.2" fill="#FEFFFF" transform="matrix(1.00, 0.00, -0.00, -1.00, 0.6, 13.4)">•</text><text xml:space="preserve" font-family="Helvetica-Light" font-size="44.2" fill="#FEFFFF" transform="matrix(1.00, 0.00, -0.00, -1.00, 43.0, 10.0)">u</text><text xml:space="preserve" font-family="Helvetica-Light" font-size="44.2" fill="#FEFFFF" transform="matrix(1.00, 0.00, -0.00, -1.00, 67.6, 10.0)">s</text><text xml:space="preserve" font-family="Helvetica-Light" font-size="44.2" fill="#FEFFFF" transform="matrix(1.00, 0.00, -0.00, -1.00, 89.7, 10.0)">e</text><text xml:space="preserve" font-family="Helvetica-Light" font-size="44.2" fill="#FEFFFF" transform="matrix(1.00, 0.00, -0.00, -1.00, 114.3, 10.0)">s</text><text xml:space="preserve" font-family="Helvetica-Light" font-size="44.2" fill="#FEFFFF" transform="matrix(1.00, 0.00, -0.00, -1.00, 136.4, 10.0)"> </text><text xml:space="preserve" font-family="Helvetica-Light" font-size="44.2" fill="#FEFFFF" transform="matrix(1.00, 0.00, -0.00, -1.00, 148.7, 10.0)">d</text><text xml:space="preserve" font-family="Helvetica-Light" font-size="44.2" fill="#FEFFFF" transform="matrix(1.00, 0.00, -0.00, -1.00, 175.8, 10.0)">o</text><text xml:space="preserve" font-family="Helvetica-Light" font-size="44.2" fill="#FEFFFF" transform="matrix(1.00, 0.00, -0.00, -1.00, 200.4, 10.0)">c</text><text xml:space="preserve" font-family="Helvetica-Light" font-size="44.2" fill="#FEFFFF" transform="matrix(1.00, 0.00, -0.00, -1.00, 225.0, 10.0)">u</text><text xml:space="preserve" font-family="Helvetica-Light" font-size="44.2" fill="#FEFFFF" transform="matrix(1.00, 0.00, -0.00, -1.00, 249.6, 10.0)">m</text><text xml:space="preserve" font-family="Helvetica-Light" font-size="44.2" fill="#FEFFFF" transform="matrix(1.00, 0.00, -0.00, -1.00, 286.4, 10.0)">e</text><text xml:space="preserve" font-family="Helvetica-Light" font-size="44.2" fill="#FEFFFF" transform="matrix(1.00, 0.00, -0.00, -1.00, 311.0, 10.0)">n</text><text xml:space="preserve" font-family="Helvetica-Light" font-size="44.2" fill="#FEFFFF" transform="matrix(1.00, 0.00, -0.00, -1.00, 335.6, 10.0)">t</text><text xml:space="preserve" font-family="Helvetica-Light" font-size="44.2" fill="#FEFFFF" transform="matrix(1.00, 0.00, -0.00, -1.00, 347.9, 10.0)">e</text><text xml:space="preserve" font-family="Helvetica-Light" font-size="44.2" fill="#FEFFFF" transform="matrix(1.00, 0.00, -0.00, -1.00, 372.5, 10.0)">d</text><text xml:space="preserve" font-family="Helvetica-Light" font-size="44.2" fill="#FEFFFF" transform="matrix(1.00, 0.00, -0.00, -1.00, 399.5, 10.0)"> </text><text xml:space="preserve" font-family="Arial-BoldMT" font-weight="bold" font-size="44.2" fill="#FEFFFF" transform="matrix(1.00, 0.00, -0.00, -1.00, 411.8, 10.0)">p</text><text xml:space="preserve" font-family="Arial-BoldMT" font-weight="bold" font-size="44.2" fill="#FEFFFF" transform="matrix(1.00, 0.00, -0.00, -1.00, 438.8, 10.0)">u</text><text xml:space="preserve" font-family="Arial-BoldMT" font-weight="bold" font-size="44.2" fill="#FEFFFF" transform="matrix(1.00, 0.00, -0.00, -1.00, 465.9, 10.0)">b</text><text xml:space="preserve" font-family="Arial-BoldMT" font-weight="bold" font-size="44.2" fill="#FEFFFF" transform="matrix(1.00, 0.00, -0.00, -1.00, 492.9, 10.0)">l</text><text xml:space="preserve" font-family="Arial-BoldMT" font-weight="bold" font-size="44.2" fill="#FEFFFF" transform="matrix(1.00, 0.00, -0.00, -1.00, 505.2, 10.0)">i</text><text xml:space="preserve" font-family="Arial-BoldMT" font-weight="bold" font-size="44.2" fill="#FEFFFF" transform="matrix(1.00, 0.00, -0.00, -1.00, 517.4, 10.0)">c</text><text xml:space="preserve" font-family="Helvetica-Light" font-size="44.2" fill="#FEFFFF" transform="matrix(1.00, 0.00, -0.00, -1.00, 542.1, 10.0)"> </text><text xml:space="preserve" font-family="Helvetica-Light" font-size="44.2" fill="#FEFFFF" transform="matrix(1.00, 0.00, -0.00, -1.00, 554.4, 10.0)">A</text><text xml:space="preserve" font-family="Helvetica-Light" font-size="44.2" fill="#FEFFFF" transform="matrix(1.00, 0.00, -0.00, -1.00, 583.9, 10.0)">P</text><text xml:space="preserve" font-family="Helvetica-Light" font-size="44.2" fill="#FEFFFF" transform="matrix(1.00, 0.00, -0.00, -1.00, 610.9, 10.0)">I</text><text xml:space="preserve" font-family="Helvetica-Light" font-size="44.2" fill="#FEFFFF" transform="matrix(1.00, 0.00, -0.00, -1.00, 623.2, 10.0)">s</text></g></svg>