<?xml version="1.0" encoding="UTF-8" standalone="no"?><svg xmlns="http://www.w3.org/2000/svg" xmlns:xlink="http://www.w3.org/1999/xlink" clip-rule="evenodd" stroke-miterlimit="4.00" viewBox="0 0 634 109"><desc>SVG generated by Keynote</desc><defs></defs><g transform="matrix(1.00, 0.00, -0.00, -1.00, 0.0, 109.0)"><text xml:space="preserve" font-family="Helvetica-Light" font-size="33.2" fill="#FEFFFF" transform="matrix(1.00, 0.00, -0.00, -1.00, 0.6, 77.8)">•</text><text xml:space="preserve" font-family="Helvetica-Bold" font-weight="bold" font-size="44.2" fill="#FEFFFF" transform="matrix(1.00, 0.00, -0.00, -1.00, 43.0, 74.0)">u</text><text xml:space="preserve" font-family="Helvetica-Bold" font-weight="bold" font-size="44.2" fill="#FEFFFF" transform="matrix(1.00, 0.00, -0.00, -1.00, 70.0, 74.0)">p</text><text xml:space="preserve" font-family="Helvetica-Bold" font-weight="bold" font-size="44.2" fill="#FEFFFF" transform="matrix(1.00, 0.00, -0.00, -1.00, 97.0, 74.0)">d</text><text xml:space="preserve" font-family="Helvetica-Bold" font-weight="bold" font-size="44.2" fill="#FEFFFF" transform="matrix(1.00, 0.00, -0.00, -1.00, 124.0, 74.0)">a</text><text xml:space="preserve" font-family="Helvetica-Bold" font-weight="bold" font-size="44.2" fill="#FEFFFF" transform="matrix(1.00, 0.00, -0.00, -1.00, 148.7, 74.0)">t</text><text xml:space="preserve" font-family="Helvetica-Bold" font-weight="bold" font-size="44.2" fill="#FEFFFF" transform="matrix(1.00, 0.00, -0.00, -1.00, 163.4, 74.0)">e</text><text xml:space="preserve" font-family="Helvetica-Light" font-size="44.2" fill="#FEFFFF" transform="matrix(1.00, 0.00, -0.00, -1.00, 188.0, 74.0)"> </text><text xml:space="preserve" font-family="Helvetica-Light" font-size="44.2" fill="#FEFFFF" transform="matrix(1.00, 0.00, -0.00, -1.00, 200.3, 74.0)">o</text><text xml:space="preserve" font-family="Helvetica-Light" font-size="44.2" fill="#FEFFFF" transform="matrix(1.00, 0.00, -0.00, -1.00, 224.9, 74.0)">r</text><text xml:space="preserve" font-family="Helvetica-Light" font-size="44.2" fill="#FEFFFF" transform="matrix(1.00, 0.00, -0.00, -1.00, 239.6, 74.0)"> </text><text xml:space="preserve" font-family="Helvetica-Bold" font-weight="bold" font-size="44.2" fill="#FEFFFF" transform="matrix(1.00, 0.00, -0.00, -1.00, 251.9, 74.0)">a</text><text xml:space="preserve" font-family="Helvetica-Bold" font-weight="bold" font-size="44.2" fill="#FEFFFF" transform="matrix(1.00, 0.00, -0.00, -1.00, 276.6, 74.0)">d</text><text xml:space="preserve" font-family="Helvetica-Bold" font-weight="bold" font-size="44.2" fill="#FEFFFF" transform="matrix(1.00, 0.00, -0.00, -1.00, 303.6, 74.0)">d</text><text xml:space="preserve" font-family="Helvetica-Light" font-size="44.2" fill="#FEFFFF" transform="matrix(1.00, 0.00, -0.00, -1.00, 330.6, 74.0)"> </text><text xml:space="preserve" font-family="Helvetica-Light" font-size="44.2" fill="#FEFFFF" transform="matrix(1.00, 0.00, -0.00, -1.00, 342.9, 74.0)">a</text><text xml:space="preserve" font-family="Helvetica-Light" font-size="44.2" fill="#FEFFFF" transform="matrix(1.00, 0.00, -0.00, -1.00, 367.5, 74.0)"> </text><text xml:space="preserve" font-family="Helvetica-Light" font-size="44.2" fill="#FEFFFF" transform="matrix(1.00, 0.00, -0.00, -1.00, 379.8, 74.0)">n</text><text xml:space="preserve" font-family="Helvetica-Light" font-size="44.2" fill="#FEFFFF" transform="matrix(1.00, 0.00, -0.00, -1.00, 404.4, 74.0)">a</text><text xml:space="preserve" font-family="Helvetica-Light" font-size="44.2" fill="#FEFFFF" transform="matrix(1.00, 0.00, -0.00, -1.00, 429.0, 74.0)">t</text><text xml:space="preserve" font-family="Helvetica-Light" font-size="44.2" fill="#FEFFFF" transform="matrix(1.00, 0.00, -0.00, -1.00, 441.3, 74.0)">i</text><text xml:space="preserve" font-family="Helvetica-Light" font-size="44.2" fill="#FEFFFF" transform="matrix(1.00, 0.00, -0.00, -1.00, 451.1, 74.0)">v</text><text xml:space="preserve" font-family="Helvetica-Light" font-size="44.2" fill="#FEFFFF" transform="matrix(1.00, 0.00, -0.00, -1.00, 473.2, 74.0)">e</text><text xml:space="preserve" font-family="Helvetica-Light" font-size="44.2" fill="#FEFFFF" transform="matrix(1.00, 0.00, -0.00, -1.00, 497.8, 74.0)"> </text><text xml:space="preserve" font-family="Helvetica-Light" font-size="44.2" fill="#FEFFFF" transform="matrix(1.00, 0.00, -0.00, -1.00, 510.1, 74.0)">p</text><text xml:space="preserve" font-family="Helvetica-Light" font-size="44.2" fill="#FEFFFF" transform="matrix(1.00, 0.00, -0.00, -1.00, 537.1, 74.0)">l</text><text xml:space="preserve" font-family="Helvetica-Light" font-size="44.2" fill="#FEFFFF" transform="matrix(1.00, 0.00, -0.00, -1.00, 547.0, 74.0)">u</text><text xml:space="preserve" font-family="Helvetica-Light" font-size="44.2" fill="#FEFFFF" transform="matrix(1.00, 0.00, -0.00, -1.00, 571.6, 74.0)">g</text><text xml:space="preserve" font-family="Helvetica-Light" font-size="44.2" fill="#FEFFFF" transform="matrix(1.00, 0.00, -0.00, -1.00, 598.6, 74.0)">i</text><text xml:space="preserve" font-family="Helvetica-Light" font-size="44.2" fill="#FEFFFF" transform="matrix(1.00, 0.00, -0.00, -1.00, 608.4, 74.0)">n</text><text xml:space="preserve" font-family="Helvetica-Light" font-size="44.2" fill="#FEFFFF" transform="matrix(1.00, 0.00, -0.00, -1.00, 633.0, 74.0)"> </text><text xml:space="preserve" font-family="Helvetica-Light" font-size="44.2" fill="#FEFFFF" transform="matrix(1.00, 0.00, -0.00, -1.00, 43.0, 11.0)">d</text><text xml:space="preserve" font-family="Helvetica-Light" font-size="44.2" fill="#FEFFFF" transform="matrix(1.00, 0.00, -0.00, -1.00, 70.0, 11.0)">y</text><text xml:space="preserve" font-family="Helvetica-Light" font-size="44.2" fill="#FEFFFF" transform="matrix(1.00, 0.00, -0.00, -1.00, 92.2, 11.0)">n</text><text xml:space="preserve" font-family="Helvetica-Light" font-size="44.2" fill="#FEFFFF" transform="matrix(1.00, 0.00, -0.00, -1.00, 116.7, 11.0)">a</text><text xml:space="preserve" font-family="Helvetica-Light" font-size="44.2" fill="#FEFFFF" transform="matrix(1.00, 0.00, -0.00, -1.00, 141.3, 11.0)">m</text><text xml:space="preserve" font-family="Helvetica-Light" font-size="44.2" fill="#FEFFFF" transform="matrix(1.00, 0.00, -0.00, -1.00, 178.2, 11.0)">i</text><text xml:space="preserve" font-family="Helvetica-Light" font-size="44.2" fill="#FEFFFF" transform="matrix(1.00, 0.00, -0.00, -1.00, 188.0, 11.0)">c</text><text xml:space="preserve" font-family="Helvetica-Light" font-size="44.2" fill="#FEFFFF" transform="matrix(1.00, 0.00, -0.00, -1.00, 212.6, 11.0)">a</text><text xml:space="preserve" font-family="Helvetica-Light" font-size="44.2" fill="#FEFFFF" transform="matrix(1.00, 0.00, -0.00, -1.00, 237.2, 11.0)">l</text><text xml:space="preserve" font-family="Helvetica-Light" font-size="44.2" fill="#FEFFFF" transform="matrix(1.00, 0.00, -0.00, -1.00, 247.0, 11.0)">l</text><text xml:space="preserve" font-family="Helvetica-Light" font-size="44.2" fill="#FEFFFF" transform="matrix(1.00, 0.00, -0.00, -1.00, 256.9, 11.0)">y</text></g></svg>