<?xml version="1.0" encoding="UTF-8" standalone="no"?><svg xmlns="http://www.w3.org/2000/svg" xmlns:xlink="http://www.w3.org/1999/xlink" clip-rule="evenodd" stroke-miterlimit="4.00" viewBox="0 0 344 34"><desc>SVG generated by Keynote</desc><defs></defs><g transform="matrix(1.00, 0.00, -0.00, -1.00, 0.0, 34.0)"><text xml:space="preserve" font-family="Helvetica-Light" font-size="24.4" fill="#FEFFFF" transform="matrix(1.00, 0.00, -0.00, -1.00, 0.9, 10.8)">•</text><text xml:space="preserve" font-family="Helvetica-Light" font-size="32.6" fill="#FEFFFF" transform="matrix(1.00, 0.00, -0.00, -1.00, 32.0, 9.0)">n</text><text xml:space="preserve" font-family="Helvetica-Light" font-size="32.6" fill="#FEFFFF" transform="matrix(1.00, 0.00, -0.00, -1.00, 50.1, 9.0)">o</text><text xml:space="preserve" font-family="Helvetica-Light" font-size="32.6" fill="#FEFFFF" transform="matrix(1.00, 0.00, -0.00, -1.00, 68.2, 9.0)">t</text><text xml:space="preserve" font-family="Helvetica-Light" font-size="32.6" fill="#FEFFFF" transform="matrix(1.00, 0.00, -0.00, -1.00, 77.3, 9.0)"> </text><text xml:space="preserve" font-family="Helvetica-Light" font-size="32.6" fill="#FEFFFF" transform="matrix(1.00, 0.00, -0.00, -1.00, 86.3, 9.0)">e</text><text xml:space="preserve" font-family="Helvetica-Light" font-size="32.6" fill="#FEFFFF" transform="matrix(1.00, 0.00, -0.00, -1.00, 104.4, 9.0)">x</text><text xml:space="preserve" font-family="Helvetica-Light" font-size="32.6" fill="#FEFFFF" transform="matrix(1.00, 0.00, -0.00, -1.00, 120.7, 9.0)">a</text><text xml:space="preserve" font-family="Helvetica-Light" font-size="32.6" fill="#FEFFFF" transform="matrix(1.00, 0.00, -0.00, -1.00, 138.8, 9.0)">c</text><text xml:space="preserve" font-family="Helvetica-Light" font-size="32.6" fill="#FEFFFF" transform="matrix(1.00, 0.00, -0.00, -1.00, 156.9, 9.0)">t</text><text xml:space="preserve" font-family="Helvetica-Light" font-size="32.6" fill="#FEFFFF" transform="matrix(1.00, 0.00, -0.00, -1.00, 166.0, 9.0)">l</text><text xml:space="preserve" font-family="Helvetica-Light" font-size="32.6" fill="#FEFFFF" transform="matrix(1.00, 0.00, -0.00, -1.00, 173.2, 9.0)">y</text><text xml:space="preserve" font-family="Helvetica-Light" font-size="32.6" fill="#FEFFFF" transform="matrix(1.00, 0.00, -0.00, -1.00, 189.5, 9.0)"> </text><text xml:space="preserve" font-family="Helvetica-Light" font-size="32.6" fill="#FEFFFF" transform="matrix(1.00, 0.00, -0.00, -1.00, 198.5, 9.0)">s</text><text xml:space="preserve" font-family="Helvetica-Light" font-size="32.6" fill="#FEFFFF" transform="matrix(1.00, 0.00, -0.00, -1.00, 214.8, 9.0)">t</text><text xml:space="preserve" font-family="Helvetica-Light" font-size="32.6" fill="#FEFFFF" transform="matrix(1.00, 0.00, -0.00, -1.00, 223.8, 9.0)">a</text><text xml:space="preserve" font-family="Helvetica-Light" font-size="32.6" fill="#FEFFFF" transform="matrix(1.00, 0.00, -0.00, -1.00, 241.9, 9.0)">b</text><text xml:space="preserve" font-family="Helvetica-Light" font-size="32.6" fill="#FEFFFF" transform="matrix(1.00, 0.00, -0.00, -1.00, 261.8, 9.0)">l</text><text xml:space="preserve" font-family="Helvetica-Light" font-size="32.6" fill="#FEFFFF" transform="matrix(1.00, 0.00, -0.00, -1.00, 269.1, 9.0)">e</text><text xml:space="preserve" font-family="Helvetica-Light" font-size="32.6" fill="#FEFFFF" transform="matrix(1.00, 0.00, -0.00, -1.00, 287.2, 9.0)"> </text><text xml:space="preserve" font-family="Arial-BoldMT" font-weight="bold" font-size="32.6" fill="#FEFFFF" transform="matrix(1.00, 0.00, -0.00, -1.00, 296.2, 9.0)">y</text><text xml:space="preserve" font-family="Arial-BoldMT" font-weight="bold" font-size="32.6" fill="#FEFFFF" transform="matrix(1.00, 0.00, -0.00, -1.00, 314.3, 9.0)">e</text><text xml:space="preserve" font-family="Arial-BoldMT" font-weight="bold" font-size="32.6" fill="#FEFFFF" transform="matrix(1.00, 0.00, -0.00, -1.00, 332.5, 9.0)">t</text></g></svg>