<?xml version="1.0" encoding="UTF-8" standalone="no"?><svg xmlns="http://www.w3.org/2000/svg" xmlns:xlink="http://www.w3.org/1999/xlink" clip-rule="evenodd" stroke-miterlimit="4.00" viewBox="0 0 1024 768"><desc>SVG generated by Keynote</desc><defs></defs><g transform="matrix(1.00, 0.00, -0.00, -1.00, 0.0, 768.0)"><g><clipPath id="clip-52"><path d="M 0.0 768.0 L 1024.0 768.0 L 1024.0 0.0 L 0.0 0.0 Z M 0.0 768.0 "></path></clipPath><g clip-path="url(#clip-52)"><image xlink:href="../../25419986-73FB-4357-A089-2F0FE3F450AF/assets/E7ABA782A15EA3475B4CFCC80A2FEB63.jpeg" width="1024.00" height="768.00" transform="matrix(1.00, 0.00, -0.00, -1.00, 0.0, 768.0)"></image></g></g><text xml:space="preserve" font-family="Helvetica-Light" font-size="76.8" fill="#FEFFFF" transform="matrix(1.00, 0.00, -0.00, -1.00, 314.0, 622.0)">F</text><text xml:space="preserve" font-family="Helvetica-Light" font-size="76.8" fill="#FEFFFF" transform="matrix(1.00, 0.00, -0.00, -1.00, 356.7, 622.0)">u</text><text xml:space="preserve" font-family="Helvetica-Light" font-size="76.8" fill="#FEFFFF" transform="matrix(1.00, 0.00, -0.00, -1.00, 399.4, 622.0)">l</text><text xml:space="preserve" font-family="Helvetica-Light" font-size="76.8" fill="#FEFFFF" transform="matrix(1.00, 0.00, -0.00, -1.00, 416.5, 622.0)">l</text><text xml:space="preserve" font-family="Helvetica-Light" font-size="76.8" fill="#FEFFFF" transform="matrix(1.00, 0.00, -0.00, -1.00, 433.5, 622.0)">y</text><text xml:space="preserve" font-family="Helvetica-Light" font-size="76.8" fill="#FEFFFF" transform="matrix(1.00, 0.00, -0.00, -1.00, 471.9, 622.0)"> </text><text xml:space="preserve" font-family="Helvetica-Light" font-size="76.8" fill="#FEFFFF" transform="matrix(1.00, 0.00, -0.00, -1.00, 493.3, 622.0)">b</text><text xml:space="preserve" font-family="Helvetica-Light" font-size="76.8" fill="#FEFFFF" transform="matrix(1.00, 0.00, -0.00, -1.00, 540.2, 622.0)">a</text><text xml:space="preserve" font-family="Helvetica-Light" font-size="76.8" fill="#FEFFFF" transform="matrix(1.00, 0.00, -0.00, -1.00, 582.9, 622.0)">k</text><text xml:space="preserve" font-family="Helvetica-Light" font-size="76.8" fill="#FEFFFF" transform="matrix(1.00, 0.00, -0.00, -1.00, 621.3, 622.0)">e</text><text xml:space="preserve" font-family="Helvetica-Light" font-size="76.8" fill="#FEFFFF" transform="matrix(1.00, 0.00, -0.00, -1.00, 664.0, 622.0)">d</text><text xml:space="preserve" font-family="Helvetica-Light" font-size="37.0" fill="#FEFFFF" transform="matrix(1.00, 0.00, -0.00, -1.00, 369.0, 197.0)">n</text><text xml:space="preserve" font-family="Helvetica-Light" font-size="37.0" fill="#FEFFFF" transform="matrix(1.00, 0.00, -0.00, -1.00, 389.5, 197.0)">p</text><text xml:space="preserve" font-family="Helvetica-Light" font-size="37.0" fill="#FEFFFF" transform="matrix(1.00, 0.00, -0.00, -1.00, 412.1, 197.0)">m</text><text xml:space="preserve" font-family="Helvetica-Light" font-size="37.0" fill="#FEFFFF" transform="matrix(1.00, 0.00, -0.00, -1.00, 442.9, 197.0)"> </text><text xml:space="preserve" font-family="Helvetica-Light" font-size="37.0" fill="#FEFFFF" transform="matrix(1.00, 0.00, -0.00, -1.00, 453.2, 197.0)">r</text><text xml:space="preserve" font-family="Helvetica-Light" font-size="37.0" fill="#FEFFFF" transform="matrix(1.00, 0.00, -0.00, -1.00, 465.5, 197.0)">u</text><text xml:space="preserve" font-family="Helvetica-Light" font-size="37.0" fill="#FEFFFF" transform="matrix(1.00, 0.00, -0.00, -1.00, 486.1, 197.0)">n</text><text xml:space="preserve" font-family="Helvetica-Light" font-size="37.0" fill="#FEFFFF" transform="matrix(1.00, 0.00, -0.00, -1.00, 506.6, 197.0)"> </text><text xml:space="preserve" font-family="Helvetica-Light" font-size="37.0" fill="#FEFFFF" transform="matrix(1.00, 0.00, -0.00, -1.00, 516.9, 197.0)">b</text><text xml:space="preserve" font-family="Helvetica-Light" font-size="37.0" fill="#FEFFFF" transform="matrix(1.00, 0.00, -0.00, -1.00, 539.5, 197.0)">a</text><text xml:space="preserve" font-family="Helvetica-Light" font-size="37.0" fill="#FEFFFF" transform="matrix(1.00, 0.00, -0.00, -1.00, 560.0, 197.0)">k</text><text xml:space="preserve" font-family="Helvetica-Light" font-size="37.0" fill="#FEFFFF" transform="matrix(1.00, 0.00, -0.00, -1.00, 578.5, 197.0)">e</text><text xml:space="preserve" font-family="Helvetica-Light" font-size="37.0" fill="#FEFFFF" transform="matrix(1.00, 0.00, -0.00, -1.00, 599.0, 197.0)">-</text><text xml:space="preserve" font-family="Helvetica-Light" font-size="37.0" fill="#FEFFFF" transform="matrix(1.00, 0.00, -0.00, -1.00, 611.3, 197.0)">a</text><text xml:space="preserve" font-family="Helvetica-Light" font-size="37.0" fill="#FEFFFF" transform="matrix(1.00, 0.00, -0.00, -1.00, 631.9, 197.0)">-</text><text xml:space="preserve" font-family="Helvetica-Light" font-size="37.0" fill="#FEFFFF" transform="matrix(1.00, 0.00, -0.00, -1.00, 644.2, 197.0)">c</text><text xml:space="preserve" font-family="Helvetica-Light" font-size="37.0" fill="#FEFFFF" transform="matrix(1.00, 0.00, -0.00, -1.00, 664.8, 197.0)">a</text><text xml:space="preserve" font-family="Helvetica-Light" font-size="37.0" fill="#FEFFFF" transform="matrix(1.00, 0.00, -0.00, -1.00, 685.3, 197.0)">k</text><text xml:space="preserve" font-family="Helvetica-Light" font-size="37.0" fill="#FEFFFF" transform="matrix(1.00, 0.00, -0.00, -1.00, 703.8, 197.0)">e</text><text xml:space="preserve" font-family="Helvetica-Light" font-size="37.0" fill="#FEFFFF" transform="matrix(1.00, 0.00, -0.00, -1.00, 724.3, 197.0)"> </text><text xml:space="preserve" font-family="Helvetica-Light" font-size="37.0" fill="#FEFFFF" transform="matrix(1.00, 0.00, -0.00, -1.00, 235.0, 153.0)">h</text><text xml:space="preserve" font-family="Helvetica-Light" font-size="37.0" fill="#FEFFFF" transform="matrix(1.00, 0.00, -0.00, -1.00, 255.5, 153.0)">t</text><text xml:space="preserve" font-family="Helvetica-Light" font-size="37.0" fill="#FEFFFF" transform="matrix(1.00, 0.00, -0.00, -1.00, 265.8, 153.0)">t</text><text xml:space="preserve" font-family="Helvetica-Light" font-size="37.0" fill="#FEFFFF" transform="matrix(1.00, 0.00, -0.00, -1.00, 276.1, 153.0)">p</text><text xml:space="preserve" font-family="Helvetica-Light" font-size="37.0" fill="#FEFFFF" transform="matrix(1.00, 0.00, -0.00, -1.00, 298.7, 153.0)">:</text><text xml:space="preserve" font-family="Helvetica-Light" font-size="37.0" fill="#FEFFFF" transform="matrix(1.00, 0.00, -0.00, -1.00, 309.0, 153.0)">/</text><text xml:space="preserve" font-family="Helvetica-Light" font-size="37.0" fill="#FEFFFF" transform="matrix(1.00, 0.00, -0.00, -1.00, 319.2, 153.0)">/</text><text xml:space="preserve" font-family="Helvetica-Light" font-size="37.0" fill="#FEFFFF" transform="matrix(1.00, 0.00, -0.00, -1.00, 329.5, 153.0)">s</text><text xml:space="preserve" font-family="Helvetica-Light" font-size="37.0" fill="#FEFFFF" transform="matrix(1.00, 0.00, -0.00, -1.00, 348.0, 153.0)">h</text><text xml:space="preserve" font-family="Helvetica-Light" font-size="37.0" fill="#FEFFFF" transform="matrix(1.00, 0.00, -0.00, -1.00, 368.5, 153.0)">a</text><text xml:space="preserve" font-family="Helvetica-Light" font-size="37.0" fill="#FEFFFF" transform="matrix(1.00, 0.00, -0.00, -1.00, 389.1, 153.0)">z</text><text xml:space="preserve" font-family="Helvetica-Light" font-size="37.0" fill="#FEFFFF" transform="matrix(1.00, 0.00, -0.00, -1.00, 407.6, 153.0)">.</text><text xml:space="preserve" font-family="Helvetica-Light" font-size="37.0" fill="#FEFFFF" transform="matrix(1.00, 0.00, -0.00, -1.00, 417.8, 153.0)">i</text><text xml:space="preserve" font-family="Helvetica-Light" font-size="37.0" fill="#FEFFFF" transform="matrix(1.00, 0.00, -0.00, -1.00, 426.0, 153.0)">o</text><text xml:space="preserve" font-family="Helvetica-Light" font-size="37.0" fill="#FEFFFF" transform="matrix(1.00, 0.00, -0.00, -1.00, 446.6, 153.0)">/</text><text xml:space="preserve" font-family="Helvetica-Light" font-size="37.0" fill="#FEFFFF" transform="matrix(1.00, 0.00, -0.00, -1.00, 456.9, 153.0)">2</text><text xml:space="preserve" font-family="Helvetica-Light" font-size="37.0" fill="#FEFFFF" transform="matrix(1.00, 0.00, -0.00, -1.00, 477.4, 153.0)">0</text><text xml:space="preserve" font-family="Helvetica-Light" font-size="37.0" fill="#FEFFFF" transform="matrix(1.00, 0.00, -0.00, -1.00, 498.0, 153.0)">1</text><text xml:space="preserve" font-family="Helvetica-Light" font-size="37.0" fill="#FEFFFF" transform="matrix(1.00, 0.00, -0.00, -1.00, 518.5, 153.0)">4</text><text xml:space="preserve" font-family="Helvetica-Light" font-size="37.0" fill="#FEFFFF" transform="matrix(1.00, 0.00, -0.00, -1.00, 539.1, 153.0)">/</text><text xml:space="preserve" font-family="Helvetica-Light" font-size="37.0" fill="#FEFFFF" transform="matrix(1.00, 0.00, -0.00, -1.00, 549.3, 153.0)">0</text><text xml:space="preserve" font-family="Helvetica-Light" font-size="37.0" fill="#FEFFFF" transform="matrix(1.00, 0.00, -0.00, -1.00, 569.9, 153.0)">9</text><text xml:space="preserve" font-family="Helvetica-Light" font-size="37.0" fill="#FEFFFF" transform="matrix(1.00, 0.00, -0.00, -1.00, 590.4, 153.0)">/</text><text xml:space="preserve" font-family="Helvetica-Light" font-size="37.0" fill="#FEFFFF" transform="matrix(1.00, 0.00, -0.00, -1.00, 600.7, 153.0)">0</text><text xml:space="preserve" font-family="Helvetica-Light" font-size="37.0" fill="#FEFFFF" transform="matrix(1.00, 0.00, -0.00, -1.00, 621.3, 153.0)">1</text><text xml:space="preserve" font-family="Helvetica-Light" font-size="37.0" fill="#FEFFFF" transform="matrix(1.00, 0.00, -0.00, -1.00, 641.8, 153.0)">/</text><text xml:space="preserve" font-family="Helvetica-Light" font-size="37.0" fill="#FEFFFF" transform="matrix(1.00, 0.00, -0.00, -1.00, 652.1, 153.0)">f</text><text xml:space="preserve" font-family="Helvetica-Light" font-size="37.0" fill="#FEFFFF" transform="matrix(1.00, 0.00, -0.00, -1.00, 662.4, 153.0)">r</text><text xml:space="preserve" font-family="Helvetica-Light" font-size="37.0" fill="#FEFFFF" transform="matrix(1.00, 0.00, -0.00, -1.00, 674.7, 153.0)">u</text><text xml:space="preserve" font-family="Helvetica-Light" font-size="37.0" fill="#FEFFFF" transform="matrix(1.00, 0.00, -0.00, -1.00, 695.2, 153.0)">i</text><text xml:space="preserve" font-family="Helvetica-Light" font-size="37.0" fill="#FEFFFF" transform="matrix(1.00, 0.00, -0.00, -1.00, 703.4, 153.0)">t</text><text xml:space="preserve" font-family="Helvetica-Light" font-size="37.0" fill="#FEFFFF" transform="matrix(1.00, 0.00, -0.00, -1.00, 713.7, 153.0)">-</text><text xml:space="preserve" font-family="Helvetica-Light" font-size="37.0" fill="#FEFFFF" transform="matrix(1.00, 0.00, -0.00, -1.00, 726.0, 153.0)">t</text><text xml:space="preserve" font-family="Helvetica-Light" font-size="37.0" fill="#FEFFFF" transform="matrix(1.00, 0.00, -0.00, -1.00, 736.3, 153.0)">o</text><text xml:space="preserve" font-family="Helvetica-Light" font-size="37.0" fill="#FEFFFF" transform="matrix(1.00, 0.00, -0.00, -1.00, 756.8, 153.0)">p</text><text xml:space="preserve" font-family="Helvetica-Light" font-size="37.0" fill="#FEFFFF" transform="matrix(1.00, 0.00, -0.00, -1.00, 779.4, 153.0)">p</text><text xml:space="preserve" font-family="Helvetica-Light" font-size="37.0" fill="#FEFFFF" transform="matrix(1.00, 0.00, -0.00, -1.00, 802.0, 153.0)">e</text><text xml:space="preserve" font-family="Helvetica-Light" font-size="37.0" fill="#FEFFFF" transform="matrix(1.00, 0.00, -0.00, -1.00, 822.6, 153.0)">d</text><text xml:space="preserve" font-family="Helvetica-Light" font-size="37.0" fill="#FEFFFF" transform="matrix(1.00, 0.00, -0.00, -1.00, 845.1, 153.0)">-</text><g><clipPath id="clip-53"><path d="M 234.0 148.1 L 857.4 148.1 L 857.4 151.9 L 234.0 151.9 Z M 234.0 148.1 "></path></clipPath><g clip-path="url(#clip-53)"><path d="M 100.8 86.3 L 723.2 86.3 " fill="none" stroke="#FEFFFF" stroke-width="1.85" stroke-miterlimit="0.00" transform="matrix(1.00, 0.00, 0.00, -1.00, 134.2, 236.3)"></path></g></g><text xml:space="preserve" font-family="Helvetica-Light" font-size="37.0" fill="#FEFFFF" transform="matrix(1.00, 0.00, -0.00, -1.00, 438.0, 109.0)">s</text><text xml:space="preserve" font-family="Helvetica-Light" font-size="37.0" fill="#FEFFFF" transform="matrix(1.00, 0.00, -0.00, -1.00, 456.5, 109.0)">p</text><text xml:space="preserve" font-family="Helvetica-Light" font-size="37.0" fill="#FEFFFF" transform="matrix(1.00, 0.00, -0.00, -1.00, 479.1, 109.0)">o</text><text xml:space="preserve" font-family="Helvetica-Light" font-size="37.0" fill="#FEFFFF" transform="matrix(1.00, 0.00, -0.00, -1.00, 499.6, 109.0)">n</text><text xml:space="preserve" font-family="Helvetica-Light" font-size="37.0" fill="#FEFFFF" transform="matrix(1.00, 0.00, -0.00, -1.00, 520.2, 109.0)">g</text><text xml:space="preserve" font-family="Helvetica-Light" font-size="37.0" fill="#FEFFFF" transform="matrix(1.00, 0.00, -0.00, -1.00, 542.7, 109.0)">e</text><text xml:space="preserve" font-family="Helvetica-Light" font-size="37.0" fill="#FEFFFF" transform="matrix(1.00, 0.00, -0.00, -1.00, 563.3, 109.0)">c</text><text xml:space="preserve" font-family="Helvetica-Light" font-size="37.0" fill="#FEFFFF" transform="matrix(1.00, 0.00, -0.00, -1.00, 583.8, 109.0)">a</text><text xml:space="preserve" font-family="Helvetica-Light" font-size="37.0" fill="#FEFFFF" transform="matrix(1.00, 0.00, -0.00, -1.00, 604.4, 109.0)">k</text><text xml:space="preserve" font-family="Helvetica-Light" font-size="37.0" fill="#FEFFFF" transform="matrix(1.00, 0.00, -0.00, -1.00, 622.9, 109.0)">e</text><text xml:space="preserve" font-family="Helvetica-Light" font-size="37.0" fill="#FEFFFF" transform="matrix(1.00, 0.00, -0.00, -1.00, 643.4, 109.0)">/</text><g><clipPath id="clip-54"><path d="M 437.3 104.1 L 654.0 104.1 L 654.0 107.9 L 437.3 107.9 Z M 437.3 104.1 "></path></clipPath><g clip-path="url(#clip-54)"><path d="M 304.2 130.3 L 519.8 130.3 " fill="none" stroke="#FEFFFF" stroke-width="1.85" stroke-miterlimit="0.00" transform="matrix(1.00, 0.00, 0.00, -1.00, 134.2, 236.3)"></path></g></g><image xlink:href="../../5D0F4660-7886-4D88-A6C2-61C061464F7D/assets/C0152AD1B196A5D8AB55855E5D665F07.jpeg" width="328.00" height="246.00" transform="matrix(1.00, 0.00, -0.00, -1.00, 382.0, 554.0)"></image><image xlink:href="../../5D0F4660-7886-4D88-A6C2-61C061464F7D/assets/F71ED653E9C3F2F0C4FAD52E4CC75138.png" width="1366.00" height="414.00" transform="matrix(0.24, 0.00, -0.00, -0.24, 382.4, 307.8)"></image></g></svg>