<?xml version="1.0" encoding="UTF-8" standalone="no"?><svg xmlns="http://www.w3.org/2000/svg" xmlns:xlink="http://www.w3.org/1999/xlink" clip-rule="evenodd" stroke-miterlimit="4.00" viewBox="0 0 388 75"><desc>SVG generated by Keynote</desc><defs></defs><g transform="matrix(1.00, 0.00, -0.00, -1.00, 0.0, 75.0)"><text xml:space="preserve" font-family="Helvetica-Light" font-size="76.8" fill="#FEFFFF" transform="matrix(1.00, 0.00, -0.00, -1.00, -4.0, 18.0)">F</text><text xml:space="preserve" font-family="Helvetica-Light" font-size="76.8" fill="#FEFFFF" transform="matrix(1.00, 0.00, -0.00, -1.00, 38.7, 18.0)">u</text><text xml:space="preserve" font-family="Helvetica-Light" font-size="76.8" fill="#FEFFFF" transform="matrix(1.00, 0.00, -0.00, -1.00, 81.4, 18.0)">l</text><text xml:space="preserve" font-family="Helvetica-Light" font-size="76.8" fill="#FEFFFF" transform="matrix(1.00, 0.00, -0.00, -1.00, 98.5, 18.0)">l</text><text xml:space="preserve" font-family="Helvetica-Light" font-size="76.8" fill="#FEFFFF" transform="matrix(1.00, 0.00, -0.00, -1.00, 115.5, 18.0)">y</text><text xml:space="preserve" font-family="Helvetica-Light" font-size="76.8" fill="#FEFFFF" transform="matrix(1.00, 0.00, -0.00, -1.00, 153.9, 18.0)"> </text><text xml:space="preserve" font-family="Helvetica-Light" font-size="76.8" fill="#FEFFFF" transform="matrix(1.00, 0.00, -0.00, -1.00, 175.3, 18.0)">b</text><text xml:space="preserve" font-family="Helvetica-Light" font-size="76.8" fill="#FEFFFF" transform="matrix(1.00, 0.00, -0.00, -1.00, 222.2, 18.0)">a</text><text xml:space="preserve" font-family="Helvetica-Light" font-size="76.8" fill="#FEFFFF" transform="matrix(1.00, 0.00, -0.00, -1.00, 264.9, 18.0)">k</text><text xml:space="preserve" font-family="Helvetica-Light" font-size="76.8" fill="#FEFFFF" transform="matrix(1.00, 0.00, -0.00, -1.00, 303.3, 18.0)">e</text><text xml:space="preserve" font-family="Helvetica-Light" font-size="76.8" fill="#FEFFFF" transform="matrix(1.00, 0.00, -0.00, -1.00, 346.0, 18.0)">d</text></g></svg>