<?xml version="1.0" encoding="UTF-8" standalone="no"?><svg xmlns="http://www.w3.org/2000/svg" xmlns:xlink="http://www.w3.org/1999/xlink" clip-rule="evenodd" stroke-miterlimit="4.00" viewBox="0 0 720 405"><desc>SVG generated by Keynote</desc><defs></defs><g transform="matrix(1.00, 0.00, -0.00, -1.00, 0.0, 405.0)"><path d="M 0.0 405.0 L 720.0 405.0 L 720.0 0.0 L 0.0 0.0 Z M 0.0 405.0 " fill="#FFFFFF"></path><text xml:space="preserve" font-family="ArialMT" font-size="26.9" fill="#000000" transform="matrix(1.00, 0.00, -0.00, -1.00, 32.0, 338.0)">B</text><text xml:space="preserve" font-family="ArialMT" font-size="26.9" fill="#000000" transform="matrix(1.00, 0.00, -0.00, -1.00, 49.9, 338.0)">a</text><text xml:space="preserve" font-family="ArialMT" font-size="26.9" fill="#000000" transform="matrix(1.00, 0.00, -0.00, -1.00, 64.9, 338.0)">k</text><text xml:space="preserve" font-family="ArialMT" font-size="26.9" fill="#000000" transform="matrix(1.00, 0.00, -0.00, -1.00, 78.3, 338.0)">e</text><text xml:space="preserve" font-family="ArialMT" font-size="26.9" fill="#000000" transform="matrix(1.00, 0.00, -0.00, -1.00, 93.3, 338.0)"> </text><text xml:space="preserve" font-family="ArialMT" font-size="26.9" fill="#000000" transform="matrix(1.00, 0.00, -0.00, -1.00, 100.7, 338.0)">a</text><text xml:space="preserve" font-family="ArialMT" font-size="26.9" fill="#000000" transform="matrix(1.00, 0.00, -0.00, -1.00, 115.7, 338.0)"> </text><text xml:space="preserve" font-family="ArialMT" font-size="26.9" fill="#000000" transform="matrix(1.00, 0.00, -0.00, -1.00, 123.2, 338.0)">c</text><text xml:space="preserve" font-family="ArialMT" font-size="26.9" fill="#000000" transform="matrix(1.00, 0.00, -0.00, -1.00, 136.6, 338.0)">a</text><text xml:space="preserve" font-family="ArialMT" font-size="26.9" fill="#000000" transform="matrix(1.00, 0.00, -0.00, -1.00, 151.6, 338.0)">k</text><text xml:space="preserve" font-family="ArialMT" font-size="26.9" fill="#000000" transform="matrix(1.00, 0.00, -0.00, -1.00, 165.0, 338.0)">e</text><text xml:space="preserve" font-family="ArialMT" font-size="26.9" fill="#000000" transform="matrix(1.00, 0.00, -0.00, -1.00, 179.9, 338.0)">?</text><text xml:space="preserve" font-family="ArialMT" font-size="24.0" fill="#585858" transform="matrix(1.00, 0.00, -0.00, -1.00, 249.0, 87.0)">n</text><text xml:space="preserve" font-family="ArialMT" font-size="24.0" fill="#585858" transform="matrix(1.00, 0.00, -0.00, -1.00, 262.4, 87.0)">p</text><text xml:space="preserve" font-family="ArialMT" font-size="24.0" fill="#585858" transform="matrix(1.00, 0.00, -0.00, -1.00, 275.7, 87.0)">m</text><text xml:space="preserve" font-family="ArialMT" font-size="24.0" fill="#585858" transform="matrix(1.00, 0.00, -0.00, -1.00, 295.7, 87.0)"> </text><text xml:space="preserve" font-family="ArialMT" font-size="24.0" fill="#585858" transform="matrix(1.00, 0.00, -0.00, -1.00, 302.4, 87.0)">r</text><text xml:space="preserve" font-family="ArialMT" font-size="24.0" fill="#585858" transform="matrix(1.00, 0.00, -0.00, -1.00, 310.4, 87.0)">u</text><text xml:space="preserve" font-family="ArialMT" font-size="24.0" fill="#585858" transform="matrix(1.00, 0.00, -0.00, -1.00, 323.7, 87.0)">n</text><text xml:space="preserve" font-family="ArialMT" font-size="24.0" fill="#585858" transform="matrix(1.00, 0.00, -0.00, -1.00, 337.1, 87.0)"> </text><text xml:space="preserve" font-family="ArialMT" font-size="24.0" fill="#585858" transform="matrix(1.00, 0.00, -0.00, -1.00, 343.7, 87.0)">b</text><text xml:space="preserve" font-family="ArialMT" font-size="24.0" fill="#585858" transform="matrix(1.00, 0.00, -0.00, -1.00, 357.1, 87.0)">a</text><text xml:space="preserve" font-family="ArialMT" font-size="24.0" fill="#585858" transform="matrix(1.00, 0.00, -0.00, -1.00, 370.4, 87.0)">k</text><text xml:space="preserve" font-family="ArialMT" font-size="24.0" fill="#585858" transform="matrix(1.00, 0.00, -0.00, -1.00, 382.4, 87.0)">e</text><text xml:space="preserve" font-family="ArialMT" font-size="24.0" fill="#585858" transform="matrix(1.00, 0.00, -0.00, -1.00, 395.8, 87.0)">-</text><text xml:space="preserve" font-family="ArialMT" font-size="24.0" fill="#585858" transform="matrix(1.00, 0.00, -0.00, -1.00, 403.8, 87.0)">a</text><text xml:space="preserve" font-family="ArialMT" font-size="24.0" fill="#585858" transform="matrix(1.00, 0.00, -0.00, -1.00, 417.1, 87.0)">-</text><text xml:space="preserve" font-family="ArialMT" font-size="24.0" fill="#585858" transform="matrix(1.00, 0.00, -0.00, -1.00, 425.1, 87.0)">c</text><text xml:space="preserve" font-family="ArialMT" font-size="24.0" fill="#585858" transform="matrix(1.00, 0.00, -0.00, -1.00, 437.1, 87.0)">a</text><text xml:space="preserve" font-family="ArialMT" font-size="24.0" fill="#585858" transform="matrix(1.00, 0.00, -0.00, -1.00, 450.5, 87.0)">k</text><text xml:space="preserve" font-family="ArialMT" font-size="24.0" fill="#585858" transform="matrix(1.00, 0.00, -0.00, -1.00, 462.5, 87.0)">e</text><text xml:space="preserve" font-family="LucidaGrande" font-size="24.0" fill="#585858" transform="matrix(1.00, 0.00, -0.00, -1.00, 475.8, 87.0)"> </text><text xml:space="preserve" font-family="ArialMT" font-size="24.0" fill="#585858" transform="matrix(1.00, 0.00, -0.00, -1.00, 95.0, 55.0)">h</text><text xml:space="preserve" font-family="ArialMT" font-size="24.0" fill="#585858" transform="matrix(1.00, 0.00, -0.00, -1.00, 108.4, 55.0)">t</text><text xml:space="preserve" font-family="ArialMT" font-size="24.0" fill="#585858" transform="matrix(1.00, 0.00, -0.00, -1.00, 115.0, 55.0)">t</text><text xml:space="preserve" font-family="ArialMT" font-size="24.0" fill="#585858" transform="matrix(1.00, 0.00, -0.00, -1.00, 121.7, 55.0)">p</text><text xml:space="preserve" font-family="ArialMT" font-size="24.0" fill="#585858" transform="matrix(1.00, 0.00, -0.00, -1.00, 135.0, 55.0)">:</text><text xml:space="preserve" font-family="ArialMT" font-size="24.0" fill="#585858" transform="matrix(1.00, 0.00, -0.00, -1.00, 141.7, 55.0)">/</text><text xml:space="preserve" font-family="ArialMT" font-size="24.0" fill="#585858" transform="matrix(1.00, 0.00, -0.00, -1.00, 148.4, 55.0)">/</text><text xml:space="preserve" font-family="ArialMT" font-size="24.0" fill="#585858" transform="matrix(1.00, 0.00, -0.00, -1.00, 155.0, 55.0)">s</text><text xml:space="preserve" font-family="ArialMT" font-size="24.0" fill="#585858" transform="matrix(1.00, 0.00, -0.00, -1.00, 167.0, 55.0)">h</text><text xml:space="preserve" font-family="ArialMT" font-size="24.0" fill="#585858" transform="matrix(1.00, 0.00, -0.00, -1.00, 180.4, 55.0)">a</text><text xml:space="preserve" font-family="ArialMT" font-size="24.0" fill="#585858" transform="matrix(1.00, 0.00, -0.00, -1.00, 193.7, 55.0)">z</text><text xml:space="preserve" font-family="ArialMT" font-size="24.0" fill="#585858" transform="matrix(1.00, 0.00, -0.00, -1.00, 205.7, 55.0)">.</text><text xml:space="preserve" font-family="ArialMT" font-size="24.0" fill="#585858" transform="matrix(1.00, 0.00, -0.00, -1.00, 212.4, 55.0)">i</text><text xml:space="preserve" font-family="ArialMT" font-size="24.0" fill="#585858" transform="matrix(1.00, 0.00, -0.00, -1.00, 217.7, 55.0)">o</text><text xml:space="preserve" font-family="ArialMT" font-size="24.0" fill="#585858" transform="matrix(1.00, 0.00, -0.00, -1.00, 231.1, 55.0)">/</text><text xml:space="preserve" font-family="ArialMT" font-size="24.0" fill="#585858" transform="matrix(1.00, 0.00, -0.00, -1.00, 237.7, 55.0)">2</text><text xml:space="preserve" font-family="ArialMT" font-size="24.0" fill="#585858" transform="matrix(1.00, 0.00, -0.00, -1.00, 251.1, 55.0)">0</text><text xml:space="preserve" font-family="ArialMT" font-size="24.0" fill="#585858" transform="matrix(1.00, 0.00, -0.00, -1.00, 264.4, 55.0)">1</text><text xml:space="preserve" font-family="ArialMT" font-size="24.0" fill="#585858" transform="matrix(1.00, 0.00, -0.00, -1.00, 277.8, 55.0)">4</text><text xml:space="preserve" font-family="ArialMT" font-size="24.0" fill="#585858" transform="matrix(1.00, 0.00, -0.00, -1.00, 291.2, 55.0)">/</text><text xml:space="preserve" font-family="ArialMT" font-size="24.0" fill="#585858" transform="matrix(1.00, 0.00, -0.00, -1.00, 297.8, 55.0)">0</text><text xml:space="preserve" font-family="ArialMT" font-size="24.0" fill="#585858" transform="matrix(1.00, 0.00, -0.00, -1.00, 311.2, 55.0)">9</text><text xml:space="preserve" font-family="ArialMT" font-size="24.0" fill="#585858" transform="matrix(1.00, 0.00, -0.00, -1.00, 324.5, 55.0)">/</text><text xml:space="preserve" font-family="ArialMT" font-size="24.0" fill="#585858" transform="matrix(1.00, 0.00, -0.00, -1.00, 331.2, 55.0)">0</text><text xml:space="preserve" font-family="ArialMT" font-size="24.0" fill="#585858" transform="matrix(1.00, 0.00, -0.00, -1.00, 344.5, 55.0)">1</text><text xml:space="preserve" font-family="ArialMT" font-size="24.0" fill="#585858" transform="matrix(1.00, 0.00, -0.00, -1.00, 357.9, 55.0)">/</text><text xml:space="preserve" font-family="ArialMT" font-size="24.0" fill="#585858" transform="matrix(1.00, 0.00, -0.00, -1.00, 364.6, 55.0)">f</text><text xml:space="preserve" font-family="ArialMT" font-size="24.0" fill="#585858" transform="matrix(1.00, 0.00, -0.00, -1.00, 371.2, 55.0)">r</text><text xml:space="preserve" font-family="ArialMT" font-size="24.0" fill="#585858" transform="matrix(1.00, 0.00, -0.00, -1.00, 379.2, 55.0)">u</text><text xml:space="preserve" font-family="ArialMT" font-size="24.0" fill="#585858" transform="matrix(1.00, 0.00, -0.00, -1.00, 392.6, 55.0)">i</text><text xml:space="preserve" font-family="ArialMT" font-size="24.0" fill="#585858" transform="matrix(1.00, 0.00, -0.00, -1.00, 397.9, 55.0)">t</text><text xml:space="preserve" font-family="ArialMT" font-size="24.0" fill="#585858" transform="matrix(1.00, 0.00, -0.00, -1.00, 404.6, 55.0)">-</text><text xml:space="preserve" font-family="ArialMT" font-size="24.0" fill="#585858" transform="matrix(1.00, 0.00, -0.00, -1.00, 412.6, 55.0)">t</text><text xml:space="preserve" font-family="ArialMT" font-size="24.0" fill="#585858" transform="matrix(1.00, 0.00, -0.00, -1.00, 419.2, 55.0)">o</text><text xml:space="preserve" font-family="ArialMT" font-size="24.0" fill="#585858" transform="matrix(1.00, 0.00, -0.00, -1.00, 432.6, 55.0)">p</text><text xml:space="preserve" font-family="ArialMT" font-size="24.0" fill="#585858" transform="matrix(1.00, 0.00, -0.00, -1.00, 445.9, 55.0)">p</text><text xml:space="preserve" font-family="ArialMT" font-size="24.0" fill="#585858" transform="matrix(1.00, 0.00, -0.00, -1.00, 459.3, 55.0)">e</text><text xml:space="preserve" font-family="ArialMT" font-size="24.0" fill="#585858" transform="matrix(1.00, 0.00, -0.00, -1.00, 472.6, 55.0)">d</text><text xml:space="preserve" font-family="ArialMT" font-size="24.0" fill="#585858" transform="matrix(1.00, 0.00, -0.00, -1.00, 486.0, 55.0)">-</text><text xml:space="preserve" font-family="ArialMT" font-size="24.0" fill="#585858" transform="matrix(1.00, 0.00, -0.00, -1.00, 494.0, 55.0)">s</text><text xml:space="preserve" font-family="ArialMT" font-size="24.0" fill="#585858" transform="matrix(1.00, 0.00, -0.00, -1.00, 506.0, 55.0)">p</text><text xml:space="preserve" font-family="ArialMT" font-size="24.0" fill="#585858" transform="matrix(1.00, 0.00, -0.00, -1.00, 519.3, 55.0)">o</text><text xml:space="preserve" font-family="ArialMT" font-size="24.0" fill="#585858" transform="matrix(1.00, 0.00, -0.00, -1.00, 532.7, 55.0)">n</text><text xml:space="preserve" font-family="ArialMT" font-size="24.0" fill="#585858" transform="matrix(1.00, 0.00, -0.00, -1.00, 546.0, 55.0)">g</text><text xml:space="preserve" font-family="ArialMT" font-size="24.0" fill="#585858" transform="matrix(1.00, 0.00, -0.00, -1.00, 559.4, 55.0)">e</text><text xml:space="preserve" font-family="ArialMT" font-size="24.0" fill="#585858" transform="matrix(1.00, 0.00, -0.00, -1.00, 572.7, 55.0)">c</text><text xml:space="preserve" font-family="ArialMT" font-size="24.0" fill="#585858" transform="matrix(1.00, 0.00, -0.00, -1.00, 584.7, 55.0)">a</text><text xml:space="preserve" font-family="ArialMT" font-size="24.0" fill="#585858" transform="matrix(1.00, 0.00, -0.00, -1.00, 598.1, 55.0)">k</text><text xml:space="preserve" font-family="ArialMT" font-size="24.0" fill="#585858" transform="matrix(1.00, 0.00, -0.00, -1.00, 610.1, 55.0)">e</text><text xml:space="preserve" font-family="ArialMT" font-size="24.0" fill="#585858" transform="matrix(1.00, 0.00, -0.00, -1.00, 623.4, 55.0)">/</text><image xlink:href="../../AE7BEABA-CB44-4922-A9D2-5BAA36B1BD57/assets/441569D64B7B2E5DBD5EEC4859A927FA.jpeg" width="277.00" height="207.00" transform="matrix(1.00, 0.00, -0.00, -1.00, 225.0, 348.0)"></image></g></svg>