<?xml version="1.0" encoding="UTF-8" standalone="no"?><svg xmlns="http://www.w3.org/2000/svg" xmlns:xlink="http://www.w3.org/1999/xlink" clip-rule="evenodd" stroke-miterlimit="4.00" viewBox="0 0 1024 768"><desc>SVG generated by Keynote</desc><defs></defs><g transform="matrix(1.00, 0.00, -0.00, -1.00, 0.0, 768.0)"><g><clipPath id="clip-13"><path d="M 0.0 768.0 L 1024.0 768.0 L 1024.0 0.0 L 0.0 0.0 Z M 0.0 768.0 "></path></clipPath><g clip-path="url(#clip-13)"><image xlink:href="../../25419986-73FB-4357-A089-2F0FE3F450AF/assets/E7ABA782A15EA3475B4CFCC80A2FEB63.jpeg" width="1024.00" height="768.00" transform="matrix(1.00, 0.00, -0.00, -1.00, 0.0, 768.0)"></image></g></g><text xml:space="preserve" font-family="Helvetica-Light" font-size="80.0" fill="#FEFFFF" transform="matrix(1.00, 0.00, -0.00, -1.00, 142.0, 621.0)">F</text><text xml:space="preserve" font-family="Helvetica-Light" font-size="80.0" fill="#FEFFFF" transform="matrix(1.00, 0.00, -0.00, -1.00, 186.5, 621.0)">o</text><text xml:space="preserve" font-family="Helvetica-Light" font-size="80.0" fill="#FEFFFF" transform="matrix(1.00, 0.00, -0.00, -1.00, 231.0, 621.0)">r</text><text xml:space="preserve" font-family="Helvetica-Light" font-size="80.0" fill="#FEFFFF" transform="matrix(1.00, 0.00, -0.00, -1.00, 257.6, 621.0)"> </text><text xml:space="preserve" font-family="Helvetica-Light" font-size="80.0" fill="#FEFFFF" transform="matrix(1.00, 0.00, -0.00, -1.00, 279.8, 621.0)">A</text><text xml:space="preserve" font-family="Helvetica-Light" font-size="80.0" fill="#FEFFFF" transform="matrix(1.00, 0.00, -0.00, -1.00, 333.2, 621.0)">p</text><text xml:space="preserve" font-family="Helvetica-Light" font-size="80.0" fill="#FEFFFF" transform="matrix(1.00, 0.00, -0.00, -1.00, 382.1, 621.0)">p</text><text xml:space="preserve" font-family="Helvetica-Light" font-size="80.0" fill="#FEFFFF" transform="matrix(1.00, 0.00, -0.00, -1.00, 431.0, 621.0)"> </text><text xml:space="preserve" font-family="Helvetica-Light" font-size="80.0" fill="#FEFFFF" transform="matrix(1.00, 0.00, -0.00, -1.00, 453.2, 621.0)">S</text><text xml:space="preserve" font-family="Helvetica-Light" font-size="80.0" fill="#FEFFFF" transform="matrix(1.00, 0.00, -0.00, -1.00, 502.1, 621.0)">t</text><text xml:space="preserve" font-family="Helvetica-Light" font-size="80.0" fill="#FEFFFF" transform="matrix(1.00, 0.00, -0.00, -1.00, 524.3, 621.0)">o</text><text xml:space="preserve" font-family="Helvetica-Light" font-size="80.0" fill="#FEFFFF" transform="matrix(1.00, 0.00, -0.00, -1.00, 568.8, 621.0)">r</text><text xml:space="preserve" font-family="Helvetica-Light" font-size="80.0" fill="#FEFFFF" transform="matrix(1.00, 0.00, -0.00, -1.00, 594.0, 621.0)">e</text><text xml:space="preserve" font-family="Helvetica-Light" font-size="80.0" fill="#FEFFFF" transform="matrix(1.00, 0.00, -0.00, -1.00, 638.5, 621.0)"> </text><text xml:space="preserve" font-family="Helvetica-Light" font-size="80.0" fill="#FEFFFF" transform="matrix(1.00, 0.00, -0.00, -1.00, 660.7, 621.0)">a</text><text xml:space="preserve" font-family="Helvetica-Light" font-size="80.0" fill="#FEFFFF" transform="matrix(1.00, 0.00, -0.00, -1.00, 705.2, 621.0)">p</text><text xml:space="preserve" font-family="Helvetica-Light" font-size="80.0" fill="#FEFFFF" transform="matrix(1.00, 0.00, -0.00, -1.00, 754.1, 621.0)">p</text><text xml:space="preserve" font-family="Helvetica-Light" font-size="80.0" fill="#FEFFFF" transform="matrix(1.00, 0.00, -0.00, -1.00, 803.0, 621.0)">s</text><text xml:space="preserve" font-family="Helvetica-Light" font-size="80.0" fill="#FEFFFF" transform="matrix(1.00, 0.00, -0.00, -1.00, 843.0, 621.0)">?</text><text xml:space="preserve" font-family="Helvetica-Light" font-size="32.0" fill="#FEFFFF" transform="matrix(1.00, 0.00, -0.00, -1.00, 337.0, 506.0)"> </text><text xml:space="preserve" font-family="Helvetica-Light" font-size="32.0" fill="#FEFFFF" transform="matrix(1.00, 0.00, -0.00, -1.00, 345.9, 506.0)"> </text><text xml:space="preserve" font-family="Helvetica-Light" font-size="32.0" fill="#FEFFFF" transform="matrix(1.00, 0.00, -0.00, -1.00, 354.8, 506.0)"> </text><text xml:space="preserve" font-family="Helvetica-Light" font-size="32.0" fill="#FEFFFF" transform="matrix(1.00, 0.00, -0.00, -1.00, 363.7, 506.0)"> </text><text xml:space="preserve" font-family="Helvetica-Light" font-size="32.0" fill="#FEFFFF" transform="matrix(1.00, 0.00, -0.00, -1.00, 372.6, 506.0)"> </text><text xml:space="preserve" font-family="Helvetica-Light" font-size="68.0" fill="#FEFFFF" transform="matrix(1.00, 0.00, -0.00, -1.00, 381.5, 506.0)">N</text><text xml:space="preserve" font-family="Helvetica-Light" font-size="68.0" fill="#FEFFFF" transform="matrix(1.00, 0.00, -0.00, -1.00, 430.6, 506.0)">o</text><text xml:space="preserve" font-family="Helvetica-Light" font-size="68.0" fill="#FEFFFF" transform="matrix(1.00, 0.00, -0.00, -1.00, 468.4, 506.0)">.</text><text xml:space="preserve" font-family="Helvetica-Light" font-size="33.0" fill="#FEFFFF" transform="matrix(1.00, 0.00, -0.00, -1.00, 104.0, 434.8)">•</text><text xml:space="preserve" font-family="Helvetica-Light" font-size="44.0" fill="#FEFFFF" transform="matrix(1.00, 0.00, -0.00, -1.00, 146.0, 431.0)">P</text><text xml:space="preserve" font-family="Helvetica-Light" font-size="44.0" fill="#FEFFFF" transform="matrix(1.00, 0.00, -0.00, -1.00, 172.9, 431.0)">l</text><text xml:space="preserve" font-family="Helvetica-Light" font-size="44.0" fill="#FEFFFF" transform="matrix(1.00, 0.00, -0.00, -1.00, 182.7, 431.0)">u</text><text xml:space="preserve" font-family="Helvetica-Light" font-size="44.0" fill="#FEFFFF" transform="matrix(1.00, 0.00, -0.00, -1.00, 207.1, 431.0)">g</text><text xml:space="preserve" font-family="Helvetica-Light" font-size="44.0" fill="#FEFFFF" transform="matrix(1.00, 0.00, -0.00, -1.00, 234.0, 431.0)">i</text><text xml:space="preserve" font-family="Helvetica-Light" font-size="44.0" fill="#FEFFFF" transform="matrix(1.00, 0.00, -0.00, -1.00, 243.8, 431.0)">n</text><text xml:space="preserve" font-family="Helvetica-Light" font-size="44.0" fill="#FEFFFF" transform="matrix(1.00, 0.00, -0.00, -1.00, 268.2, 431.0)"> </text><text xml:space="preserve" font-family="Helvetica-Light" font-size="44.0" fill="#FEFFFF" transform="matrix(1.00, 0.00, -0.00, -1.00, 280.5, 431.0)">n</text><text xml:space="preserve" font-family="Helvetica-Light" font-size="44.0" fill="#FEFFFF" transform="matrix(1.00, 0.00, -0.00, -1.00, 304.9, 431.0)">e</text><text xml:space="preserve" font-family="Helvetica-Light" font-size="44.0" fill="#FEFFFF" transform="matrix(1.00, 0.00, -0.00, -1.00, 329.4, 431.0)">e</text><text xml:space="preserve" font-family="Helvetica-Light" font-size="44.0" fill="#FEFFFF" transform="matrix(1.00, 0.00, -0.00, -1.00, 353.9, 431.0)">d</text><text xml:space="preserve" font-family="Helvetica-Light" font-size="44.0" fill="#FEFFFF" transform="matrix(1.00, 0.00, -0.00, -1.00, 380.7, 431.0)">s</text><text xml:space="preserve" font-family="Helvetica-Light" font-size="44.0" fill="#FEFFFF" transform="matrix(1.00, 0.00, -0.00, -1.00, 402.7, 431.0)"> </text><text xml:space="preserve" font-family="Helvetica-Light" font-size="44.0" fill="#FEFFFF" transform="matrix(1.00, 0.00, -0.00, -1.00, 415.0, 431.0)">t</text><text xml:space="preserve" font-family="Helvetica-Light" font-size="44.0" fill="#FEFFFF" transform="matrix(1.00, 0.00, -0.00, -1.00, 427.2, 431.0)">o</text><text xml:space="preserve" font-family="Helvetica-Light" font-size="44.0" fill="#FEFFFF" transform="matrix(1.00, 0.00, -0.00, -1.00, 451.7, 431.0)"> </text><text xml:space="preserve" font-family="Helvetica-Light" font-size="44.0" fill="#FEFFFF" transform="matrix(1.00, 0.00, -0.00, -1.00, 463.9, 431.0)">b</text><text xml:space="preserve" font-family="Helvetica-Light" font-size="44.0" fill="#FEFFFF" transform="matrix(1.00, 0.00, -0.00, -1.00, 490.8, 431.0)">e</text><text xml:space="preserve" font-family="Helvetica-Light" font-size="44.0" fill="#FEFFFF" transform="matrix(1.00, 0.00, -0.00, -1.00, 515.2, 431.0)"> </text><text xml:space="preserve" font-family="Helvetica-Light" font-size="44.0" fill="#FEFFFF" transform="matrix(1.00, 0.00, -0.00, -1.00, 527.5, 431.0)">s</text><text xml:space="preserve" font-family="Helvetica-Light" font-size="44.0" fill="#FEFFFF" transform="matrix(1.00, 0.00, -0.00, -1.00, 549.5, 431.0)">i</text><text xml:space="preserve" font-family="Helvetica-Light" font-size="44.0" fill="#FEFFFF" transform="matrix(1.00, 0.00, -0.00, -1.00, 559.2, 431.0)">g</text><text xml:space="preserve" font-family="Helvetica-Light" font-size="44.0" fill="#FEFFFF" transform="matrix(1.00, 0.00, -0.00, -1.00, 586.1, 431.0)">n</text><text xml:space="preserve" font-family="Helvetica-Light" font-size="44.0" fill="#FEFFFF" transform="matrix(1.00, 0.00, -0.00, -1.00, 610.6, 431.0)">e</text><text xml:space="preserve" font-family="Helvetica-Light" font-size="44.0" fill="#FEFFFF" transform="matrix(1.00, 0.00, -0.00, -1.00, 635.1, 431.0)">d</text><text xml:space="preserve" font-family="Helvetica-Light" font-size="44.0" fill="#FEFFFF" transform="matrix(1.00, 0.00, -0.00, -1.00, 661.9, 431.0)"> </text><text xml:space="preserve" font-family="Helvetica-Light" font-size="44.0" fill="#FEFFFF" transform="matrix(1.00, 0.00, -0.00, -1.00, 146.0, 367.0)">b</text><text xml:space="preserve" font-family="Helvetica-Light" font-size="44.0" fill="#FEFFFF" transform="matrix(1.00, 0.00, -0.00, -1.00, 172.9, 367.0)">y</text><text xml:space="preserve" font-family="Helvetica-Light" font-size="44.0" fill="#FEFFFF" transform="matrix(1.00, 0.00, -0.00, -1.00, 194.9, 367.0)"> </text><text xml:space="preserve" font-family="Helvetica-Light" font-size="44.0" fill="#FEFFFF" transform="matrix(1.00, 0.00, -0.00, -1.00, 207.1, 367.0)">E</text><text xml:space="preserve" font-family="Helvetica-Light" font-size="44.0" fill="#FEFFFF" transform="matrix(1.00, 0.00, -0.00, -1.00, 234.0, 367.0)">n</text><text xml:space="preserve" font-family="Helvetica-Light" font-size="44.0" fill="#FEFFFF" transform="matrix(1.00, 0.00, -0.00, -1.00, 258.5, 367.0)">t</text><text xml:space="preserve" font-family="Helvetica-Light" font-size="44.0" fill="#FEFFFF" transform="matrix(1.00, 0.00, -0.00, -1.00, 270.7, 367.0)">e</text><text xml:space="preserve" font-family="Helvetica-Light" font-size="44.0" fill="#FEFFFF" transform="matrix(1.00, 0.00, -0.00, -1.00, 295.2, 367.0)">r</text><text xml:space="preserve" font-family="Helvetica-Light" font-size="44.0" fill="#FEFFFF" transform="matrix(1.00, 0.00, -0.00, -1.00, 309.8, 367.0)">p</text><text xml:space="preserve" font-family="Helvetica-Light" font-size="44.0" fill="#FEFFFF" transform="matrix(1.00, 0.00, -0.00, -1.00, 336.7, 367.0)">r</text><text xml:space="preserve" font-family="Helvetica-Light" font-size="44.0" fill="#FEFFFF" transform="matrix(1.00, 0.00, -0.00, -1.00, 351.3, 367.0)">i</text><text xml:space="preserve" font-family="Helvetica-Light" font-size="44.0" fill="#FEFFFF" transform="matrix(1.00, 0.00, -0.00, -1.00, 361.1, 367.0)">s</text><text xml:space="preserve" font-family="Helvetica-Light" font-size="44.0" fill="#FEFFFF" transform="matrix(1.00, 0.00, -0.00, -1.00, 383.1, 367.0)">e</text><text xml:space="preserve" font-family="Helvetica-Light" font-size="44.0" fill="#FEFFFF" transform="matrix(1.00, 0.00, -0.00, -1.00, 407.6, 367.0)">/</text><text xml:space="preserve" font-family="Helvetica-Light" font-size="44.0" fill="#FEFFFF" transform="matrix(1.00, 0.00, -0.00, -1.00, 419.8, 367.0)">D</text><text xml:space="preserve" font-family="Helvetica-Light" font-size="44.0" fill="#FEFFFF" transform="matrix(1.00, 0.00, -0.00, -1.00, 451.6, 367.0)">e</text><text xml:space="preserve" font-family="Helvetica-Light" font-size="44.0" fill="#FEFFFF" transform="matrix(1.00, 0.00, -0.00, -1.00, 476.0, 367.0)">v</text><text xml:space="preserve" font-family="Helvetica-Light" font-size="44.0" fill="#FEFFFF" transform="matrix(1.00, 0.00, -0.00, -1.00, 498.0, 367.0)">e</text><text xml:space="preserve" font-family="Helvetica-Light" font-size="44.0" fill="#FEFFFF" transform="matrix(1.00, 0.00, -0.00, -1.00, 522.5, 367.0)">l</text><text xml:space="preserve" font-family="Helvetica-Light" font-size="44.0" fill="#FEFFFF" transform="matrix(1.00, 0.00, -0.00, -1.00, 532.3, 367.0)">o</text><text xml:space="preserve" font-family="Helvetica-Light" font-size="44.0" fill="#FEFFFF" transform="matrix(1.00, 0.00, -0.00, -1.00, 556.7, 367.0)">p</text><text xml:space="preserve" font-family="Helvetica-Light" font-size="44.0" fill="#FEFFFF" transform="matrix(1.00, 0.00, -0.00, -1.00, 583.6, 367.0)">e</text><text xml:space="preserve" font-family="Helvetica-Light" font-size="44.0" fill="#FEFFFF" transform="matrix(1.00, 0.00, -0.00, -1.00, 608.1, 367.0)">r</text><text xml:space="preserve" font-family="Helvetica-Light" font-size="44.0" fill="#FEFFFF" transform="matrix(1.00, 0.00, -0.00, -1.00, 622.7, 367.0)"> </text><text xml:space="preserve" font-family="Helvetica-Light" font-size="44.0" fill="#FEFFFF" transform="matrix(1.00, 0.00, -0.00, -1.00, 635.0, 367.0)">c</text><text xml:space="preserve" font-family="Helvetica-Light" font-size="44.0" fill="#FEFFFF" transform="matrix(1.00, 0.00, -0.00, -1.00, 659.4, 367.0)">e</text><text xml:space="preserve" font-family="Helvetica-Light" font-size="44.0" fill="#FEFFFF" transform="matrix(1.00, 0.00, -0.00, -1.00, 683.9, 367.0)">r</text><text xml:space="preserve" font-family="Helvetica-Light" font-size="44.0" fill="#FEFFFF" transform="matrix(1.00, 0.00, -0.00, -1.00, 699.3, 367.0)">t</text><text xml:space="preserve" font-family="Helvetica-Light" font-size="44.0" fill="#FEFFFF" transform="matrix(1.00, 0.00, -0.00, -1.00, 711.6, 367.0)"> </text><text xml:space="preserve" font-family="Helvetica-Light" font-size="44.0" fill="#FEFFFF" transform="matrix(1.00, 0.00, -0.00, -1.00, 146.0, 304.0)">(</text><text xml:space="preserve" font-family="Helvetica-Light" font-size="44.0" fill="#FEFFFF" transform="matrix(1.00, 0.00, -0.00, -1.00, 160.7, 304.0)">s</text><text xml:space="preserve" font-family="Helvetica-Light" font-size="44.0" fill="#FEFFFF" transform="matrix(1.00, 0.00, -0.00, -1.00, 182.7, 304.0)">a</text><text xml:space="preserve" font-family="Helvetica-Light" font-size="44.0" fill="#FEFFFF" transform="matrix(1.00, 0.00, -0.00, -1.00, 207.1, 304.0)">m</text><text xml:space="preserve" font-family="Helvetica-Light" font-size="44.0" fill="#FEFFFF" transform="matrix(1.00, 0.00, -0.00, -1.00, 243.8, 304.0)">e</text><text xml:space="preserve" font-family="Helvetica-Light" font-size="44.0" fill="#FEFFFF" transform="matrix(1.00, 0.00, -0.00, -1.00, 268.2, 304.0)"> </text><text xml:space="preserve" font-family="Helvetica-Light" font-size="44.0" fill="#FEFFFF" transform="matrix(1.00, 0.00, -0.00, -1.00, 280.5, 304.0)">a</text><text xml:space="preserve" font-family="Helvetica-Light" font-size="44.0" fill="#FEFFFF" transform="matrix(1.00, 0.00, -0.00, -1.00, 304.9, 304.0)">s</text><text xml:space="preserve" font-family="Helvetica-Light" font-size="44.0" fill="#FEFFFF" transform="matrix(1.00, 0.00, -0.00, -1.00, 326.9, 304.0)"> </text><text xml:space="preserve" font-family="Helvetica-Light" font-size="44.0" fill="#FEFFFF" transform="matrix(1.00, 0.00, -0.00, -1.00, 339.2, 304.0)">y</text><text xml:space="preserve" font-family="Helvetica-Light" font-size="44.0" fill="#FEFFFF" transform="matrix(1.00, 0.00, -0.00, -1.00, 361.2, 304.0)">o</text><text xml:space="preserve" font-family="Helvetica-Light" font-size="44.0" fill="#FEFFFF" transform="matrix(1.00, 0.00, -0.00, -1.00, 385.6, 304.0)">u</text><text xml:space="preserve" font-family="Helvetica-Light" font-size="44.0" fill="#FEFFFF" transform="matrix(1.00, 0.00, -0.00, -1.00, 410.1, 304.0)">r</text><text xml:space="preserve" font-family="Helvetica-Light" font-size="44.0" fill="#FEFFFF" transform="matrix(1.00, 0.00, -0.00, -1.00, 424.7, 304.0)"> </text><text xml:space="preserve" font-family="Helvetica-Light" font-size="44.0" fill="#FEFFFF" transform="matrix(1.00, 0.00, -0.00, -1.00, 437.0, 304.0)">a</text><text xml:space="preserve" font-family="Helvetica-Light" font-size="44.0" fill="#FEFFFF" transform="matrix(1.00, 0.00, -0.00, -1.00, 461.4, 304.0)">p</text><text xml:space="preserve" font-family="Helvetica-Light" font-size="44.0" fill="#FEFFFF" transform="matrix(1.00, 0.00, -0.00, -1.00, 488.3, 304.0)">p</text><text xml:space="preserve" font-family="Helvetica-Light" font-size="44.0" fill="#FEFFFF" transform="matrix(1.00, 0.00, -0.00, -1.00, 515.2, 304.0)">)</text><text xml:space="preserve" font-family="Helvetica-Light" font-size="33.0" fill="#FEFFFF" transform="matrix(1.00, 0.00, -0.00, -1.00, 104.0, 244.0)">•</text><text xml:space="preserve" font-family="Helvetica-Light" font-size="44.0" fill="#FEFFFF" transform="matrix(1.00, 0.00, -0.00, -1.00, 146.0, 240.0)">A</text><text xml:space="preserve" font-family="Helvetica-Light" font-size="44.0" fill="#FEFFFF" transform="matrix(1.00, 0.00, -0.00, -1.00, 175.3, 240.0)">p</text><text xml:space="preserve" font-family="Helvetica-Light" font-size="44.0" fill="#FEFFFF" transform="matrix(1.00, 0.00, -0.00, -1.00, 202.2, 240.0)">p</text><text xml:space="preserve" font-family="Helvetica-Light" font-size="44.0" fill="#FEFFFF" transform="matrix(1.00, 0.00, -0.00, -1.00, 229.1, 240.0)"> </text><text xml:space="preserve" font-family="Helvetica-Light" font-size="44.0" fill="#FEFFFF" transform="matrix(1.00, 0.00, -0.00, -1.00, 241.3, 240.0)">S</text><text xml:space="preserve" font-family="Helvetica-Light" font-size="44.0" fill="#FEFFFF" transform="matrix(1.00, 0.00, -0.00, -1.00, 268.2, 240.0)">t</text><text xml:space="preserve" font-family="Helvetica-Light" font-size="44.0" fill="#FEFFFF" transform="matrix(1.00, 0.00, -0.00, -1.00, 280.5, 240.0)">o</text><text xml:space="preserve" font-family="Helvetica-Light" font-size="44.0" fill="#FEFFFF" transform="matrix(1.00, 0.00, -0.00, -1.00, 304.9, 240.0)">r</text><text xml:space="preserve" font-family="Helvetica-Light" font-size="44.0" fill="#FEFFFF" transform="matrix(1.00, 0.00, -0.00, -1.00, 318.8, 240.0)">e</text><text xml:space="preserve" font-family="Helvetica-Light" font-size="44.0" fill="#FEFFFF" transform="matrix(1.00, 0.00, -0.00, -1.00, 343.3, 240.0)"> </text><text xml:space="preserve" font-family="Helvetica-Light" font-size="44.0" fill="#FEFFFF" transform="matrix(1.00, 0.00, -0.00, -1.00, 355.5, 240.0)">a</text><text xml:space="preserve" font-family="Helvetica-Light" font-size="44.0" fill="#FEFFFF" transform="matrix(1.00, 0.00, -0.00, -1.00, 379.9, 240.0)">p</text><text xml:space="preserve" font-family="Helvetica-Light" font-size="44.0" fill="#FEFFFF" transform="matrix(1.00, 0.00, -0.00, -1.00, 406.8, 240.0)">p</text><text xml:space="preserve" font-family="Helvetica-Light" font-size="44.0" fill="#FEFFFF" transform="matrix(1.00, 0.00, -0.00, -1.00, 433.7, 240.0)">s</text><text xml:space="preserve" font-family="Helvetica-Light" font-size="44.0" fill="#FEFFFF" transform="matrix(1.00, 0.00, -0.00, -1.00, 455.7, 240.0)"> </text><text xml:space="preserve" font-family="Helvetica-Light" font-size="44.0" fill="#FEFFFF" transform="matrix(1.00, 0.00, -0.00, -1.00, 467.9, 240.0)">a</text><text xml:space="preserve" font-family="Helvetica-Light" font-size="44.0" fill="#FEFFFF" transform="matrix(1.00, 0.00, -0.00, -1.00, 492.4, 240.0)">r</text><text xml:space="preserve" font-family="Helvetica-Light" font-size="44.0" fill="#FEFFFF" transform="matrix(1.00, 0.00, -0.00, -1.00, 506.3, 240.0)">e</text><text xml:space="preserve" font-family="Helvetica-Light" font-size="44.0" fill="#FEFFFF" transform="matrix(1.00, 0.00, -0.00, -1.00, 530.7, 240.0)"> </text><text xml:space="preserve" font-family="Helvetica-Light" font-size="44.0" fill="#FEFFFF" transform="matrix(1.00, 0.00, -0.00, -1.00, 543.0, 240.0)">s</text><text xml:space="preserve" font-family="Helvetica-Light" font-size="44.0" fill="#FEFFFF" transform="matrix(1.00, 0.00, -0.00, -1.00, 565.0, 240.0)">i</text><text xml:space="preserve" font-family="Helvetica-Light" font-size="44.0" fill="#FEFFFF" transform="matrix(1.00, 0.00, -0.00, -1.00, 574.7, 240.0)">g</text><text xml:space="preserve" font-family="Helvetica-Light" font-size="44.0" fill="#FEFFFF" transform="matrix(1.00, 0.00, -0.00, -1.00, 601.6, 240.0)">n</text><text xml:space="preserve" font-family="Helvetica-Light" font-size="44.0" fill="#FEFFFF" transform="matrix(1.00, 0.00, -0.00, -1.00, 626.1, 240.0)">e</text><text xml:space="preserve" font-family="Helvetica-Light" font-size="44.0" fill="#FEFFFF" transform="matrix(1.00, 0.00, -0.00, -1.00, 650.5, 240.0)">d</text><text xml:space="preserve" font-family="Helvetica-Light" font-size="44.0" fill="#FEFFFF" transform="matrix(1.00, 0.00, -0.00, -1.00, 677.4, 240.0)"> </text><text xml:space="preserve" font-family="Helvetica-Light" font-size="44.0" fill="#FEFFFF" transform="matrix(1.00, 0.00, -0.00, -1.00, 146.0, 176.0)">b</text><text xml:space="preserve" font-family="Helvetica-Light" font-size="44.0" fill="#FEFFFF" transform="matrix(1.00, 0.00, -0.00, -1.00, 172.9, 176.0)">y</text><text xml:space="preserve" font-family="Helvetica-Light" font-size="44.0" fill="#FEFFFF" transform="matrix(1.00, 0.00, -0.00, -1.00, 194.9, 176.0)"> </text><text xml:space="preserve" font-family="Helvetica-Light" font-size="44.0" fill="#FEFFFF" transform="matrix(1.00, 0.00, -0.00, -1.00, 207.1, 176.0)">A</text><text xml:space="preserve" font-family="Helvetica-Light" font-size="44.0" fill="#FEFFFF" transform="matrix(1.00, 0.00, -0.00, -1.00, 236.5, 176.0)">p</text><text xml:space="preserve" font-family="Helvetica-Light" font-size="44.0" fill="#FEFFFF" transform="matrix(1.00, 0.00, -0.00, -1.00, 263.3, 176.0)">p</text><text xml:space="preserve" font-family="Helvetica-Light" font-size="44.0" fill="#FEFFFF" transform="matrix(1.00, 0.00, -0.00, -1.00, 290.2, 176.0)">l</text><text xml:space="preserve" font-family="Helvetica-Light" font-size="44.0" fill="#FEFFFF" transform="matrix(1.00, 0.00, -0.00, -1.00, 300.0, 176.0)">e</text><text xml:space="preserve" font-family="Helvetica-Light" font-size="44.0" fill="#FEFFFF" transform="matrix(1.00, 0.00, -0.00, -1.00, 324.5, 176.0)">’</text><text xml:space="preserve" font-family="Helvetica-Light" font-size="44.0" fill="#FEFFFF" transform="matrix(1.00, 0.00, -0.00, -1.00, 331.0, 176.0)">s</text><text xml:space="preserve" font-family="Helvetica-Light" font-size="44.0" fill="#FEFFFF" transform="matrix(1.00, 0.00, -0.00, -1.00, 353.0, 176.0)"> </text><text xml:space="preserve" font-family="Helvetica-Light" font-size="44.0" fill="#FEFFFF" transform="matrix(1.00, 0.00, -0.00, -1.00, 365.2, 176.0)">s</text><text xml:space="preserve" font-family="Helvetica-Light" font-size="44.0" fill="#FEFFFF" transform="matrix(1.00, 0.00, -0.00, -1.00, 387.2, 176.0)">e</text><text xml:space="preserve" font-family="Helvetica-Light" font-size="44.0" fill="#FEFFFF" transform="matrix(1.00, 0.00, -0.00, -1.00, 411.7, 176.0)">c</text><text xml:space="preserve" font-family="Helvetica-Light" font-size="44.0" fill="#FEFFFF" transform="matrix(1.00, 0.00, -0.00, -1.00, 436.1, 176.0)">r</text><text xml:space="preserve" font-family="Helvetica-Light" font-size="44.0" fill="#FEFFFF" transform="matrix(1.00, 0.00, -0.00, -1.00, 450.0, 176.0)">e</text><text xml:space="preserve" font-family="Helvetica-Light" font-size="44.0" fill="#FEFFFF" transform="matrix(1.00, 0.00, -0.00, -1.00, 474.5, 176.0)">t</text><text xml:space="preserve" font-family="Helvetica-Light" font-size="44.0" fill="#FEFFFF" transform="matrix(1.00, 0.00, -0.00, -1.00, 486.7, 176.0)"> </text><text xml:space="preserve" font-family="Helvetica-Light" font-size="44.0" fill="#FEFFFF" transform="matrix(1.00, 0.00, -0.00, -1.00, 498.9, 176.0)">c</text><text xml:space="preserve" font-family="Helvetica-Light" font-size="44.0" fill="#FEFFFF" transform="matrix(1.00, 0.00, -0.00, -1.00, 523.4, 176.0)">e</text><text xml:space="preserve" font-family="Helvetica-Light" font-size="44.0" fill="#FEFFFF" transform="matrix(1.00, 0.00, -0.00, -1.00, 547.9, 176.0)">r</text><text xml:space="preserve" font-family="Helvetica-Light" font-size="44.0" fill="#FEFFFF" transform="matrix(1.00, 0.00, -0.00, -1.00, 563.3, 176.0)">t</text><text xml:space="preserve" font-family="Helvetica-Light" font-size="44.0" fill="#FEFFFF" transform="matrix(1.00, 0.00, -0.00, -1.00, 575.5, 176.0)"> </text><text xml:space="preserve" font-family="Helvetica-Light" font-size="33.0" fill="#FEFFFF" transform="matrix(1.00, 0.00, -0.00, -1.00, 104.0, 116.8)">•</text><text xml:space="preserve" font-family="Helvetica-Light" font-size="44.0" fill="#FEFFFF" transform="matrix(1.00, 0.00, -0.00, -1.00, 146.0, 113.0)">i</text><text xml:space="preserve" font-family="Helvetica-Light" font-size="44.0" fill="#FEFFFF" transform="matrix(1.00, 0.00, -0.00, -1.00, 155.8, 113.0)">O</text><text xml:space="preserve" font-family="Helvetica-Light" font-size="44.0" fill="#FEFFFF" transform="matrix(1.00, 0.00, -0.00, -1.00, 190.0, 113.0)">S</text><text xml:space="preserve" font-family="Helvetica-Light" font-size="44.0" fill="#FEFFFF" transform="matrix(1.00, 0.00, -0.00, -1.00, 216.9, 113.0)"> </text><text xml:space="preserve" font-family="Helvetica-Light" font-size="44.0" fill="#FEFFFF" transform="matrix(1.00, 0.00, -0.00, -1.00, 229.1, 113.0)">8</text><text xml:space="preserve" font-family="Helvetica-Light" font-size="44.0" fill="#FEFFFF" transform="matrix(1.00, 0.00, -0.00, -1.00, 253.6, 113.0)">+</text><text xml:space="preserve" font-family="Helvetica-Light" font-size="44.0" fill="#FEFFFF" transform="matrix(1.00, 0.00, -0.00, -1.00, 282.6, 113.0)"> </text><text xml:space="preserve" font-family="Helvetica-Light" font-size="44.0" fill="#FEFFFF" transform="matrix(1.00, 0.00, -0.00, -1.00, 294.9, 113.0)">o</text><text xml:space="preserve" font-family="Helvetica-Light" font-size="44.0" fill="#FEFFFF" transform="matrix(1.00, 0.00, -0.00, -1.00, 319.3, 113.0)">n</text><text xml:space="preserve" font-family="Helvetica-Light" font-size="44.0" fill="#FEFFFF" transform="matrix(1.00, 0.00, -0.00, -1.00, 343.8, 113.0)">l</text><text xml:space="preserve" font-family="Helvetica-Light" font-size="44.0" fill="#FEFFFF" transform="matrix(1.00, 0.00, -0.00, -1.00, 353.5, 113.0)">y</text><image xlink:href="../../21A1ADE2-2D2B-481E-9647-0566945C8428/assets/E0E5190928463B38308029236D2F2D93.png" width="193.00" height="224.00" transform="matrix(0.99, 0.00, -0.00, -1.00, 742.0, 439.0)"></image><image xlink:href="../../21A1ADE2-2D2B-481E-9647-0566945C8428/assets/60F0C795C1D7C2D802FCA89399C9C255.png" width="803.00" height="377.00" transform="matrix(0.24, 0.00, -0.00, -0.24, 741.8, 215.3)"></image></g></svg>