<?xml version="1.0" encoding="UTF-8" standalone="no"?><svg xmlns="http://www.w3.org/2000/svg" xmlns:xlink="http://www.w3.org/1999/xlink" clip-rule="evenodd" stroke-miterlimit="4.00" viewBox="0 0 609 172"><desc>SVG generated by Keynote</desc><defs></defs><g transform="matrix(1.00, 0.00, -0.00, -1.00, 0.0, 172.0)"><text xml:space="preserve" font-family="Helvetica-Light" font-size="33.0" fill="#FEFFFF" transform="matrix(1.00, 0.00, -0.00, -1.00, 0.0, 141.8)">•</text><text xml:space="preserve" font-family="Helvetica-Light" font-size="44.0" fill="#FEFFFF" transform="matrix(1.00, 0.00, -0.00, -1.00, 42.0, 138.0)">P</text><text xml:space="preserve" font-family="Helvetica-Light" font-size="44.0" fill="#FEFFFF" transform="matrix(1.00, 0.00, -0.00, -1.00, 68.9, 138.0)">l</text><text xml:space="preserve" font-family="Helvetica-Light" font-size="44.0" fill="#FEFFFF" transform="matrix(1.00, 0.00, -0.00, -1.00, 78.7, 138.0)">u</text><text xml:space="preserve" font-family="Helvetica-Light" font-size="44.0" fill="#FEFFFF" transform="matrix(1.00, 0.00, -0.00, -1.00, 103.1, 138.0)">g</text><text xml:space="preserve" font-family="Helvetica-Light" font-size="44.0" fill="#FEFFFF" transform="matrix(1.00, 0.00, -0.00, -1.00, 130.0, 138.0)">i</text><text xml:space="preserve" font-family="Helvetica-Light" font-size="44.0" fill="#FEFFFF" transform="matrix(1.00, 0.00, -0.00, -1.00, 139.8, 138.0)">n</text><text xml:space="preserve" font-family="Helvetica-Light" font-size="44.0" fill="#FEFFFF" transform="matrix(1.00, 0.00, -0.00, -1.00, 164.2, 138.0)"> </text><text xml:space="preserve" font-family="Helvetica-Light" font-size="44.0" fill="#FEFFFF" transform="matrix(1.00, 0.00, -0.00, -1.00, 176.5, 138.0)">n</text><text xml:space="preserve" font-family="Helvetica-Light" font-size="44.0" fill="#FEFFFF" transform="matrix(1.00, 0.00, -0.00, -1.00, 200.9, 138.0)">e</text><text xml:space="preserve" font-family="Helvetica-Light" font-size="44.0" fill="#FEFFFF" transform="matrix(1.00, 0.00, -0.00, -1.00, 225.4, 138.0)">e</text><text xml:space="preserve" font-family="Helvetica-Light" font-size="44.0" fill="#FEFFFF" transform="matrix(1.00, 0.00, -0.00, -1.00, 249.9, 138.0)">d</text><text xml:space="preserve" font-family="Helvetica-Light" font-size="44.0" fill="#FEFFFF" transform="matrix(1.00, 0.00, -0.00, -1.00, 276.7, 138.0)">s</text><text xml:space="preserve" font-family="Helvetica-Light" font-size="44.0" fill="#FEFFFF" transform="matrix(1.00, 0.00, -0.00, -1.00, 298.7, 138.0)"> </text><text xml:space="preserve" font-family="Helvetica-Light" font-size="44.0" fill="#FEFFFF" transform="matrix(1.00, 0.00, -0.00, -1.00, 311.0, 138.0)">t</text><text xml:space="preserve" font-family="Helvetica-Light" font-size="44.0" fill="#FEFFFF" transform="matrix(1.00, 0.00, -0.00, -1.00, 323.2, 138.0)">o</text><text xml:space="preserve" font-family="Helvetica-Light" font-size="44.0" fill="#FEFFFF" transform="matrix(1.00, 0.00, -0.00, -1.00, 347.7, 138.0)"> </text><text xml:space="preserve" font-family="Helvetica-Light" font-size="44.0" fill="#FEFFFF" transform="matrix(1.00, 0.00, -0.00, -1.00, 359.9, 138.0)">b</text><text xml:space="preserve" font-family="Helvetica-Light" font-size="44.0" fill="#FEFFFF" transform="matrix(1.00, 0.00, -0.00, -1.00, 386.8, 138.0)">e</text><text xml:space="preserve" font-family="Helvetica-Light" font-size="44.0" fill="#FEFFFF" transform="matrix(1.00, 0.00, -0.00, -1.00, 411.2, 138.0)"> </text><text xml:space="preserve" font-family="Helvetica-Light" font-size="44.0" fill="#FEFFFF" transform="matrix(1.00, 0.00, -0.00, -1.00, 423.5, 138.0)">s</text><text xml:space="preserve" font-family="Helvetica-Light" font-size="44.0" fill="#FEFFFF" transform="matrix(1.00, 0.00, -0.00, -1.00, 445.5, 138.0)">i</text><text xml:space="preserve" font-family="Helvetica-Light" font-size="44.0" fill="#FEFFFF" transform="matrix(1.00, 0.00, -0.00, -1.00, 455.2, 138.0)">g</text><text xml:space="preserve" font-family="Helvetica-Light" font-size="44.0" fill="#FEFFFF" transform="matrix(1.00, 0.00, -0.00, -1.00, 482.1, 138.0)">n</text><text xml:space="preserve" font-family="Helvetica-Light" font-size="44.0" fill="#FEFFFF" transform="matrix(1.00, 0.00, -0.00, -1.00, 506.6, 138.0)">e</text><text xml:space="preserve" font-family="Helvetica-Light" font-size="44.0" fill="#FEFFFF" transform="matrix(1.00, 0.00, -0.00, -1.00, 531.1, 138.0)">d</text><text xml:space="preserve" font-family="Helvetica-Light" font-size="44.0" fill="#FEFFFF" transform="matrix(1.00, 0.00, -0.00, -1.00, 557.9, 138.0)"> </text><text xml:space="preserve" font-family="Helvetica-Light" font-size="44.0" fill="#FEFFFF" transform="matrix(1.00, 0.00, -0.00, -1.00, 42.0, 74.0)">b</text><text xml:space="preserve" font-family="Helvetica-Light" font-size="44.0" fill="#FEFFFF" transform="matrix(1.00, 0.00, -0.00, -1.00, 68.9, 74.0)">y</text><text xml:space="preserve" font-family="Helvetica-Light" font-size="44.0" fill="#FEFFFF" transform="matrix(1.00, 0.00, -0.00, -1.00, 90.9, 74.0)"> </text><text xml:space="preserve" font-family="Helvetica-Light" font-size="44.0" fill="#FEFFFF" transform="matrix(1.00, 0.00, -0.00, -1.00, 103.1, 74.0)">E</text><text xml:space="preserve" font-family="Helvetica-Light" font-size="44.0" fill="#FEFFFF" transform="matrix(1.00, 0.00, -0.00, -1.00, 130.0, 74.0)">n</text><text xml:space="preserve" font-family="Helvetica-Light" font-size="44.0" fill="#FEFFFF" transform="matrix(1.00, 0.00, -0.00, -1.00, 154.5, 74.0)">t</text><text xml:space="preserve" font-family="Helvetica-Light" font-size="44.0" fill="#FEFFFF" transform="matrix(1.00, 0.00, -0.00, -1.00, 166.7, 74.0)">e</text><text xml:space="preserve" font-family="Helvetica-Light" font-size="44.0" fill="#FEFFFF" transform="matrix(1.00, 0.00, -0.00, -1.00, 191.2, 74.0)">r</text><text xml:space="preserve" font-family="Helvetica-Light" font-size="44.0" fill="#FEFFFF" transform="matrix(1.00, 0.00, -0.00, -1.00, 205.8, 74.0)">p</text><text xml:space="preserve" font-family="Helvetica-Light" font-size="44.0" fill="#FEFFFF" transform="matrix(1.00, 0.00, -0.00, -1.00, 232.7, 74.0)">r</text><text xml:space="preserve" font-family="Helvetica-Light" font-size="44.0" fill="#FEFFFF" transform="matrix(1.00, 0.00, -0.00, -1.00, 247.3, 74.0)">i</text><text xml:space="preserve" font-family="Helvetica-Light" font-size="44.0" fill="#FEFFFF" transform="matrix(1.00, 0.00, -0.00, -1.00, 257.1, 74.0)">s</text><text xml:space="preserve" font-family="Helvetica-Light" font-size="44.0" fill="#FEFFFF" transform="matrix(1.00, 0.00, -0.00, -1.00, 279.1, 74.0)">e</text><text xml:space="preserve" font-family="Helvetica-Light" font-size="44.0" fill="#FEFFFF" transform="matrix(1.00, 0.00, -0.00, -1.00, 303.6, 74.0)">/</text><text xml:space="preserve" font-family="Helvetica-Light" font-size="44.0" fill="#FEFFFF" transform="matrix(1.00, 0.00, -0.00, -1.00, 315.8, 74.0)">D</text><text xml:space="preserve" font-family="Helvetica-Light" font-size="44.0" fill="#FEFFFF" transform="matrix(1.00, 0.00, -0.00, -1.00, 347.6, 74.0)">e</text><text xml:space="preserve" font-family="Helvetica-Light" font-size="44.0" fill="#FEFFFF" transform="matrix(1.00, 0.00, -0.00, -1.00, 372.0, 74.0)">v</text><text xml:space="preserve" font-family="Helvetica-Light" font-size="44.0" fill="#FEFFFF" transform="matrix(1.00, 0.00, -0.00, -1.00, 394.0, 74.0)">e</text><text xml:space="preserve" font-family="Helvetica-Light" font-size="44.0" fill="#FEFFFF" transform="matrix(1.00, 0.00, -0.00, -1.00, 418.5, 74.0)">l</text><text xml:space="preserve" font-family="Helvetica-Light" font-size="44.0" fill="#FEFFFF" transform="matrix(1.00, 0.00, -0.00, -1.00, 428.3, 74.0)">o</text><text xml:space="preserve" font-family="Helvetica-Light" font-size="44.0" fill="#FEFFFF" transform="matrix(1.00, 0.00, -0.00, -1.00, 452.7, 74.0)">p</text><text xml:space="preserve" font-family="Helvetica-Light" font-size="44.0" fill="#FEFFFF" transform="matrix(1.00, 0.00, -0.00, -1.00, 479.6, 74.0)">e</text><text xml:space="preserve" font-family="Helvetica-Light" font-size="44.0" fill="#FEFFFF" transform="matrix(1.00, 0.00, -0.00, -1.00, 504.1, 74.0)">r</text><text xml:space="preserve" font-family="Helvetica-Light" font-size="44.0" fill="#FEFFFF" transform="matrix(1.00, 0.00, -0.00, -1.00, 518.7, 74.0)"> </text><text xml:space="preserve" font-family="Helvetica-Light" font-size="44.0" fill="#FEFFFF" transform="matrix(1.00, 0.00, -0.00, -1.00, 531.0, 74.0)">c</text><text xml:space="preserve" font-family="Helvetica-Light" font-size="44.0" fill="#FEFFFF" transform="matrix(1.00, 0.00, -0.00, -1.00, 555.4, 74.0)">e</text><text xml:space="preserve" font-family="Helvetica-Light" font-size="44.0" fill="#FEFFFF" transform="matrix(1.00, 0.00, -0.00, -1.00, 579.9, 74.0)">r</text><text xml:space="preserve" font-family="Helvetica-Light" font-size="44.0" fill="#FEFFFF" transform="matrix(1.00, 0.00, -0.00, -1.00, 595.3, 74.0)">t</text><text xml:space="preserve" font-family="Helvetica-Light" font-size="44.0" fill="#FEFFFF" transform="matrix(1.00, 0.00, -0.00, -1.00, 607.6, 74.0)"> </text><text xml:space="preserve" font-family="Helvetica-Light" font-size="44.0" fill="#FEFFFF" transform="matrix(1.00, 0.00, -0.00, -1.00, 42.0, 11.0)">(</text><text xml:space="preserve" font-family="Helvetica-Light" font-size="44.0" fill="#FEFFFF" transform="matrix(1.00, 0.00, -0.00, -1.00, 56.7, 11.0)">s</text><text xml:space="preserve" font-family="Helvetica-Light" font-size="44.0" fill="#FEFFFF" transform="matrix(1.00, 0.00, -0.00, -1.00, 78.7, 11.0)">a</text><text xml:space="preserve" font-family="Helvetica-Light" font-size="44.0" fill="#FEFFFF" transform="matrix(1.00, 0.00, -0.00, -1.00, 103.1, 11.0)">m</text><text xml:space="preserve" font-family="Helvetica-Light" font-size="44.0" fill="#FEFFFF" transform="matrix(1.00, 0.00, -0.00, -1.00, 139.8, 11.0)">e</text><text xml:space="preserve" font-family="Helvetica-Light" font-size="44.0" fill="#FEFFFF" transform="matrix(1.00, 0.00, -0.00, -1.00, 164.2, 11.0)"> </text><text xml:space="preserve" font-family="Helvetica-Light" font-size="44.0" fill="#FEFFFF" transform="matrix(1.00, 0.00, -0.00, -1.00, 176.5, 11.0)">a</text><text xml:space="preserve" font-family="Helvetica-Light" font-size="44.0" fill="#FEFFFF" transform="matrix(1.00, 0.00, -0.00, -1.00, 200.9, 11.0)">s</text><text xml:space="preserve" font-family="Helvetica-Light" font-size="44.0" fill="#FEFFFF" transform="matrix(1.00, 0.00, -0.00, -1.00, 222.9, 11.0)"> </text><text xml:space="preserve" font-family="Helvetica-Light" font-size="44.0" fill="#FEFFFF" transform="matrix(1.00, 0.00, -0.00, -1.00, 235.2, 11.0)">y</text><text xml:space="preserve" font-family="Helvetica-Light" font-size="44.0" fill="#FEFFFF" transform="matrix(1.00, 0.00, -0.00, -1.00, 257.2, 11.0)">o</text><text xml:space="preserve" font-family="Helvetica-Light" font-size="44.0" fill="#FEFFFF" transform="matrix(1.00, 0.00, -0.00, -1.00, 281.6, 11.0)">u</text><text xml:space="preserve" font-family="Helvetica-Light" font-size="44.0" fill="#FEFFFF" transform="matrix(1.00, 0.00, -0.00, -1.00, 306.1, 11.0)">r</text><text xml:space="preserve" font-family="Helvetica-Light" font-size="44.0" fill="#FEFFFF" transform="matrix(1.00, 0.00, -0.00, -1.00, 320.7, 11.0)"> </text><text xml:space="preserve" font-family="Helvetica-Light" font-size="44.0" fill="#FEFFFF" transform="matrix(1.00, 0.00, -0.00, -1.00, 333.0, 11.0)">a</text><text xml:space="preserve" font-family="Helvetica-Light" font-size="44.0" fill="#FEFFFF" transform="matrix(1.00, 0.00, -0.00, -1.00, 357.4, 11.0)">p</text><text xml:space="preserve" font-family="Helvetica-Light" font-size="44.0" fill="#FEFFFF" transform="matrix(1.00, 0.00, -0.00, -1.00, 384.3, 11.0)">p</text><text xml:space="preserve" font-family="Helvetica-Light" font-size="44.0" fill="#FEFFFF" transform="matrix(1.00, 0.00, -0.00, -1.00, 411.2, 11.0)">)</text></g></svg>